<?xml version='1.0' encoding='us-ascii'?>
<svg height="765.20mm" viewBox="0.0 0.0 471.90 765.20" width="471.90mm" xmlns="http://www.w3.org/2000/svg" xmlns:cc="http://creativecommons.org/ns#" xmlns:dc="http://purl.org/dc/elements/1.1/" xmlns:inkscape="http://www.inkscape.org/namespaces/inkscape" xmlns:rdf="http://www.w3.org/1999/02/22-rdf-syntax-ns#" xmlns:svg="http://www.w3.org/2000/svg" xmlns:xlink="http://www.w3.org/1999/xlink">
<!--
ElectronicsBox - Closed box with screw on top and mounting holes

Created with Boxes.py (https://festi.info/boxes.py)
Creation date: 2021-07-21 17:48:45
Command line (remove spaces between dashes): boxes ElectronicsBox - -FingerJoint_angle=90.0 - -FingerJoint_style=rectangular - -FingerJoint_surroundingspaces=2.0 - -FingerJoint_edge_width=1.0 - -FingerJoint_finger=2.0 - -FingerJoint_play=0.0 - -FingerJoint_space=2.0 - -FingerJoint_width=1.0 - -x=300 - -y=150 - -h=200 - -outside=0 - -outside=1 - -triangle=25.0 - -d1=2.0 - -d2=3.0 - -d3=3.0 - -outsidemounts=0 - -outsidemounts=1 - -holedist=7.0 - -thickness=3.0 - -format=svg - -tabs=0.0 - -debug=0 - -labels=0 - -labels=1 - -reference=100 - -burn=0.1
Url: http://www.festi.info/ElectronicsBox?FingerJoint_angle=90.0&FingerJoint_style=rectangular&FingerJoint_surroundingspaces=2.0&FingerJoint_edge_width=1.0&FingerJoint_finger=2.0&FingerJoint_play=0.0&FingerJoint_space=2.0&FingerJoint_width=1.0&x=300&y=150&h=200&outside=0&outside=1&triangle=25.0&d1=2.0&d2=3.0&d3=3.0&outsidemounts=0&outsidemounts=1&holedist=7.0&thickness=3.0&format=svg&tabs=0.0&debug=0&labels=0&labels=1&reference=100&burn=0.1&render=1
SettingsUrl: http://www.festi.info/ElectronicsBox?FingerJoint_angle=90.0&FingerJoint_style=rectangular&FingerJoint_surroundingspaces=2.0&FingerJoint_edge_width=1.0&FingerJoint_finger=2.0&FingerJoint_play=0.0&FingerJoint_space=2.0&FingerJoint_width=1.0&x=300&y=150&h=200&outside=0&outside=1&triangle=25.0&d1=2.0&d2=3.0&d3=3.0&outsidemounts=0&outsidemounts=1&holedist=7.0&thickness=3.0&format=svg&tabs=0.0&debug=0&labels=0&labels=1&reference=100&burn=0.1
-->
<title>ElectronicsBox</title>
<metadata>
<rdf:RDF><cc:Work>
<dc:title>Box - ElectronicsBox</dc:title>
<dc:date>2021-07-21 17:48:45</dc:date>
<dc:source>http://www.festi.info/ElectronicsBox?FingerJoint_angle=90.0&amp;FingerJoint_style=rectangular&amp;FingerJoint_surroundingspaces=2.0&amp;FingerJoint_edge_width=1.0&amp;FingerJoint_finger=2.0&amp;FingerJoint_play=0.0&amp;FingerJoint_space=2.0&amp;FingerJoint_width=1.0&amp;x=300&amp;y=150&amp;h=200&amp;outside=0&amp;outside=1&amp;triangle=25.0&amp;d1=2.0&amp;d2=3.0&amp;d3=3.0&amp;outsidemounts=0&amp;outsidemounts=1&amp;holedist=7.0&amp;thickness=3.0&amp;format=svg&amp;tabs=0.0&amp;debug=0&amp;labels=0&amp;labels=1&amp;reference=100&amp;burn=0.1&amp;render=1</dc:source>
<dc:description>Closed box with screw on top and mounting holes

Created with Boxes.py (https://festi.info/boxes.py)
Command line: boxes ElectronicsBox --FingerJoint_angle=90.0 --FingerJoint_style=rectangular --FingerJoint_surroundingspaces=2.0 --FingerJoint_edge_width=1.0 --FingerJoint_finger=2.0 --FingerJoint_play=0.0 --FingerJoint_space=2.0 --FingerJoint_width=1.0 --x=300 --y=150 --h=200 --outside=0 --outside=1 --triangle=25.0 --d1=2.0 --d2=3.0 --d3=3.0 --outsidemounts=0 --outsidemounts=1 --holedist=7.0 --thickness=3.0 --format=svg --tabs=0.0 --debug=0 --labels=0 --labels=1 --reference=100 --burn=0.1
Url: http://www.festi.info/ElectronicsBox?FingerJoint_angle=90.0&amp;FingerJoint_style=rectangular&amp;FingerJoint_surroundingspaces=2.0&amp;FingerJoint_edge_width=1.0&amp;FingerJoint_finger=2.0&amp;FingerJoint_play=0.0&amp;FingerJoint_space=2.0&amp;FingerJoint_width=1.0&amp;x=300&amp;y=150&amp;h=200&amp;outside=0&amp;outside=1&amp;triangle=25.0&amp;d1=2.0&amp;d2=3.0&amp;d3=3.0&amp;outsidemounts=0&amp;outsidemounts=1&amp;holedist=7.0&amp;thickness=3.0&amp;format=svg&amp;tabs=0.0&amp;debug=0&amp;labels=0&amp;labels=1&amp;reference=100&amp;burn=0.1&amp;render=1
SettingsUrl: http://www.festi.info/ElectronicsBox?FingerJoint_angle=90.0&amp;FingerJoint_style=rectangular&amp;FingerJoint_surroundingspaces=2.0&amp;FingerJoint_edge_width=1.0&amp;FingerJoint_finger=2.0&amp;FingerJoint_play=0.0&amp;FingerJoint_space=2.0&amp;FingerJoint_width=1.0&amp;x=300&amp;y=150&amp;h=200&amp;outside=0&amp;outside=1&amp;triangle=25.0&amp;d1=2.0&amp;d2=3.0&amp;d3=3.0&amp;outsidemounts=0&amp;outsidemounts=1&amp;holedist=7.0&amp;thickness=3.0&amp;format=svg&amp;tabs=0.0&amp;debug=0&amp;labels=0&amp;labels=1&amp;reference=100&amp;burn=0.1
</dc:description>
</cc:Work></rdf:RDF></metadata>
<g id="p-0" style="fill:none;stroke-linecap:round;stroke-linejoin:round;">
  <path d="M 10.100 755.200 H 110.100 V 745.200 H 10.100 V 755.200 Z" stroke="rgb(0,0,0)" stroke-width="0.20" />
  <text alignment-baseline="hanging" font-size="10px" style="font-family: sans-serif ; font-weight: normal; font-style: normal; fill: rgb(0,0,0)" text-anchor="middle" transform="matrix( 1.000 0.000 0.000 1.000 60.100 745.200 )">100mm</text><text alignment-baseline="hanging" font-size="4px" style="font-family: sans-serif ; font-weight: normal; font-style: normal; fill: rgb(255,0,0)" text-anchor="middle" transform="matrix( 1.000 0.000 0.000 1.000 15.100 748.200 )" />
</g>
<g id="p-1" style="fill:none;stroke-linecap:round;stroke-linejoin:round;">
  <path d="M 25.600 549.300 H 22.700 C 22.600 549.300 22.700 549.400 22.700 549.300 V 546.500 C 22.700 546.400 22.600 546.500 22.700 546.500 H 28.500 C 28.600 546.500 28.500 546.400 28.500 546.500 V 549.300 C 28.500 549.400 28.600 549.300 28.500 549.300 H 25.600 Z" stroke="rgb(0,0,255)" stroke-width="0.20" />
  <path d="M 294.600 546.500 H 297.500 C 297.600 546.500 297.500 546.400 297.500 546.500 V 549.300 C 297.500 549.400 297.600 549.300 297.500 549.300 H 291.700 C 291.600 549.300 291.700 549.400 291.700 549.300 V 546.500 C 291.700 546.400 291.600 546.500 291.700 546.500 H 294.600 Z" stroke="rgb(0,0,255)" stroke-width="0.20" />
  <text alignment-baseline="hanging" font-size="4px" style="font-family: sans-serif ; font-weight: normal; font-style: normal; fill: rgb(255,0,0)" text-anchor="middle" transform="matrix( 1.000 0.000 0.000 1.000 160.100 641.500 )" /><path d="M 13.100 740.500 H 19.000 C 19.100 740.500 19.000 740.400 19.000 740.500 V 743.400 C 19.000 743.455 19.045 743.500 19.100 743.500 H 25.100 C 25.155 743.500 25.200 743.455 25.200 743.400 V 740.500 C 25.200 740.400 25.100 740.500 25.200 740.500 H 31.000 C 31.100 740.500 31.000 740.400 31.000 740.500 V 743.400 C 31.000 743.455 31.045 743.500 31.100 743.500 H 37.100 C 37.155 743.500 37.200 743.455 37.200 743.400 V 740.500 C 37.200 740.400 37.100 740.500 37.200 740.500 H 43.000 C 43.100 740.500 43.000 740.400 43.000 740.500 V 743.400 C 43.000 743.455 43.045 743.500 43.100 743.500 H 49.100 C 49.155 743.500 49.200 743.455 49.200 743.400 V 740.500 C 49.200 740.400 49.100 740.500 49.200 740.500 H 55.000 C 55.100 740.500 55.000 740.400 55.000 740.500 V 743.400 C 55.000 743.455 55.045 743.500 55.100 743.500 H 61.100 C 61.155 743.500 61.200 743.455 61.200 743.400 V 740.500 C 61.200 740.400 61.100 740.500 61.200 740.500 H 67.000 C 67.100 740.500 67.000 740.400 67.000 740.500 V 743.400 C 67.000 743.455 67.045 743.500 67.100 743.500 H 73.100 C 73.155 743.500 73.200 743.455 73.200 743.400 V 740.500 C 73.200 740.400 73.100 740.500 73.200 740.500 H 79.000 C 79.100 740.500 79.000 740.400 79.000 740.500 V 743.400 C 79.000 743.455 79.045 743.500 79.100 743.500 H 85.100 C 85.155 743.500 85.200 743.455 85.200 743.400 V 740.500 C 85.200 740.400 85.100 740.500 85.200 740.500 H 91.000 C 91.100 740.500 91.000 740.400 91.000 740.500 V 743.400 C 91.000 743.455 91.045 743.500 91.100 743.500 H 97.100 C 97.155 743.500 97.200 743.455 97.200 743.400 V 740.500 C 97.200 740.400 97.100 740.500 97.200 740.500 H 103.000 C 103.100 740.500 103.000 740.400 103.000 740.500 V 743.400 C 103.000 743.455 103.045 743.500 103.100 743.500 H 109.100 C 109.155 743.500 109.200 743.455 109.200 743.400 V 740.500 C 109.200 740.400 109.100 740.500 109.200 740.500 H 115.000 C 115.100 740.500 115.000 740.400 115.000 740.500 V 743.400 C 115.000 743.455 115.045 743.500 115.100 743.500 H 121.100 C 121.155 743.500 121.200 743.455 121.200 743.400 V 740.500 C 121.200 740.400 121.100 740.500 121.200 740.500 H 127.000 C 127.100 740.500 127.000 740.400 127.000 740.500 V 743.400 C 127.000 743.455 127.045 743.500 127.100 743.500 H 133.100 C 133.155 743.500 133.200 743.455 133.200 743.400 V 740.500 C 133.200 740.400 133.100 740.500 133.200 740.500 H 139.000 C 139.100 740.500 139.000 740.400 139.000 740.500 V 743.400 C 139.000 743.455 139.045 743.500 139.100 743.500 H 145.100 C 145.155 743.500 145.200 743.455 145.200 743.400 V 740.500 C 145.200 740.400 145.100 740.500 145.200 740.500 H 151.000 C 151.100 740.500 151.000 740.400 151.000 740.500 V 743.400 C 151.000 743.455 151.045 743.500 151.100 743.500 H 157.100 C 157.155 743.500 157.200 743.455 157.200 743.400 V 740.500 C 157.200 740.400 157.100 740.500 157.200 740.500 H 163.000 C 163.100 740.500 163.000 740.400 163.000 740.500 V 743.400 C 163.000 743.455 163.045 743.500 163.100 743.500 H 169.100 C 169.155 743.500 169.200 743.455 169.200 743.400 V 740.500 C 169.200 740.400 169.100 740.500 169.200 740.500 H 175.000 C 175.100 740.500 175.000 740.400 175.000 740.500 V 743.400 C 175.000 743.455 175.045 743.500 175.100 743.500 H 181.100 C 181.155 743.500 181.200 743.455 181.200 743.400 V 740.500 C 181.200 740.400 181.100 740.500 181.200 740.500 H 187.000 C 187.100 740.500 187.000 740.400 187.000 740.500 V 743.400 C 187.000 743.455 187.045 743.500 187.100 743.500 H 193.100 C 193.155 743.500 193.200 743.455 193.200 743.400 V 740.500 C 193.200 740.400 193.100 740.500 193.200 740.500 H 199.000 C 199.100 740.500 199.000 740.400 199.000 740.500 V 743.400 C 199.000 743.455 199.045 743.500 199.100 743.500 H 205.100 C 205.155 743.500 205.200 743.455 205.200 743.400 V 740.500 C 205.200 740.400 205.100 740.500 205.200 740.500 H 211.000 C 211.100 740.500 211.000 740.400 211.000 740.500 V 743.400 C 211.000 743.455 211.045 743.500 211.100 743.500 H 217.100 C 217.155 743.500 217.200 743.455 217.200 743.400 V 740.500 C 217.200 740.400 217.100 740.500 217.200 740.500 H 223.000 C 223.100 740.500 223.000 740.400 223.000 740.500 V 743.400 C 223.000 743.455 223.045 743.500 223.100 743.500 H 229.100 C 229.155 743.500 229.200 743.455 229.200 743.400 V 740.500 C 229.200 740.400 229.100 740.500 229.200 740.500 H 235.000 C 235.100 740.500 235.000 740.400 235.000 740.500 V 743.400 C 235.000 743.455 235.045 743.500 235.100 743.500 H 241.100 C 241.155 743.500 241.200 743.455 241.200 743.400 V 740.500 C 241.200 740.400 241.100 740.500 241.200 740.500 H 247.000 C 247.100 740.500 247.000 740.400 247.000 740.500 V 743.400 C 247.000 743.455 247.045 743.500 247.100 743.500 H 253.100 C 253.155 743.500 253.200 743.455 253.200 743.400 V 740.500 C 253.200 740.400 253.100 740.500 253.200 740.500 H 259.000 C 259.100 740.500 259.000 740.400 259.000 740.500 V 743.400 C 259.000 743.455 259.045 743.500 259.100 743.500 H 265.100 C 265.155 743.500 265.200 743.455 265.200 743.400 V 740.500 C 265.200 740.400 265.100 740.500 265.200 740.500 H 271.000 C 271.100 740.500 271.000 740.400 271.000 740.500 V 743.400 C 271.000 743.455 271.045 743.500 271.100 743.500 H 277.100 C 277.155 743.500 277.200 743.455 277.200 743.400 V 740.500 C 277.200 740.400 277.100 740.500 277.200 740.500 H 283.000 C 283.100 740.500 283.000 740.400 283.000 740.500 V 743.400 C 283.000 743.455 283.045 743.500 283.100 743.500 H 289.100 C 289.155 743.500 289.200 743.455 289.200 743.400 V 740.500 C 289.200 740.400 289.100 740.500 289.200 740.500 H 295.000 C 295.100 740.500 295.000 740.400 295.000 740.500 V 743.400 C 295.000 743.455 295.045 743.500 295.100 743.500 H 301.100 C 301.155 743.500 301.200 743.455 301.200 743.400 V 740.500 C 301.200 740.400 301.100 740.500 301.200 740.500 H 307.100 H 310.100 C 310.155 740.500 310.200 740.455 310.200 740.400 V 728.900 C 310.200 728.845 310.155 728.800 310.100 728.800 H 307.200 C 307.100 728.800 307.200 728.900 307.200 728.800 V 723.000 C 307.200 722.900 307.100 723.000 307.200 723.000 H 310.100 C 310.155 723.000 310.200 722.955 310.200 722.900 V 716.900 C 310.200 716.845 310.155 716.800 310.100 716.800 H 307.200 C 307.100 716.800 307.200 716.900 307.200 716.800 V 711.000 C 307.200 710.900 307.100 711.000 307.200 711.000 H 310.100 C 310.155 711.000 310.200 710.955 310.200 710.900 V 704.900 C 310.200 704.845 310.155 704.800 310.100 704.800 H 307.200 C 307.100 704.800 307.200 704.900 307.200 704.800 V 699.000 C 307.200 698.900 307.100 699.000 307.200 699.000 H 310.100 C 310.155 699.000 310.200 698.955 310.200 698.900 V 692.900 C 310.200 692.845 310.155 692.800 310.100 692.800 H 307.200 C 307.100 692.800 307.200 692.900 307.200 692.800 V 687.000 C 307.200 686.900 307.100 687.000 307.200 687.000 H 310.100 C 310.155 687.000 310.200 686.955 310.200 686.900 V 680.900 C 310.200 680.845 310.155 680.800 310.100 680.800 H 307.200 C 307.100 680.800 307.200 680.900 307.200 680.800 V 675.000 C 307.200 674.900 307.100 675.000 307.200 675.000 H 310.100 C 310.155 675.000 310.200 674.955 310.200 674.900 V 668.900 C 310.200 668.845 310.155 668.800 310.100 668.800 H 307.200 C 307.100 668.800 307.200 668.900 307.200 668.800 V 663.000 C 307.200 662.900 307.100 663.000 307.200 663.000 H 310.100 C 310.155 663.000 310.200 662.955 310.200 662.900 V 656.900 C 310.200 656.845 310.155 656.800 310.100 656.800 H 307.200 C 307.100 656.800 307.200 656.900 307.200 656.800 V 651.000 C 307.200 650.900 307.100 651.000 307.200 651.000 H 310.100 C 310.155 651.000 310.200 650.955 310.200 650.900 V 644.900 C 310.200 644.845 310.155 644.800 310.100 644.800 H 307.200 C 307.100 644.800 307.200 644.900 307.200 644.800 V 639.000 C 307.200 638.900 307.100 639.000 307.200 639.000 H 310.100 C 310.155 639.000 310.200 638.955 310.200 638.900 V 632.900 C 310.200 632.845 310.155 632.800 310.100 632.800 H 307.200 C 307.100 632.800 307.200 632.900 307.200 632.800 V 627.000 C 307.200 626.900 307.100 627.000 307.200 627.000 H 310.100 C 310.155 627.000 310.200 626.955 310.200 626.900 V 620.900 C 310.200 620.845 310.155 620.800 310.100 620.800 H 307.200 C 307.100 620.800 307.200 620.900 307.200 620.800 V 615.000 C 307.200 614.900 307.100 615.000 307.200 615.000 H 310.100 C 310.155 615.000 310.200 614.955 310.200 614.900 V 608.900 C 310.200 608.845 310.155 608.800 310.100 608.800 H 307.200 C 307.100 608.800 307.200 608.900 307.200 608.800 V 603.000 C 307.200 602.900 307.100 603.000 307.200 603.000 H 310.100 C 310.155 603.000 310.200 602.955 310.200 602.900 V 596.900 C 310.200 596.845 310.155 596.800 310.100 596.800 H 307.200 C 307.100 596.800 307.200 596.900 307.200 596.800 V 591.000 C 307.200 590.900 307.100 591.000 307.200 591.000 H 310.100 C 310.155 591.000 310.200 590.955 310.200 590.900 V 584.900 C 310.200 584.845 310.155 584.800 310.100 584.800 H 307.200 C 307.100 584.800 307.200 584.900 307.200 584.800 V 579.000 C 307.200 578.900 307.100 579.000 307.200 579.000 H 310.100 C 310.155 579.000 310.200 578.955 310.200 578.900 V 572.900 C 310.200 572.845 310.155 572.800 310.100 572.800 H 307.200 C 307.100 572.800 307.200 572.900 307.200 572.800 V 567.000 C 307.200 566.900 307.100 567.000 307.200 567.000 H 310.100 C 310.155 567.000 310.200 566.955 310.200 566.900 V 560.900 C 310.200 560.845 310.155 560.800 310.100 560.800 H 307.200 C 307.100 560.800 307.200 560.900 307.200 560.800 V 555.000 C 307.200 554.900 307.100 555.000 307.200 555.000 H 310.100 C 310.155 555.000 310.200 554.955 310.200 554.900 V 543.400 C 310.200 543.345 310.155 543.300 310.100 543.300 H 307.100 H 13.100 H 10.100 C 10.045 543.300 10.000 543.345 10.000 543.400 V 554.900 C 10.000 554.955 10.045 555.000 10.100 555.000 H 13.000 C 13.100 555.000 13.000 554.900 13.000 555.000 V 560.800 C 13.000 560.900 13.100 560.800 13.000 560.800 H 10.100 C 10.045 560.800 10.000 560.845 10.000 560.900 V 566.900 C 10.000 566.955 10.045 567.000 10.100 567.000 H 13.000 C 13.100 567.000 13.000 566.900 13.000 567.000 V 572.800 C 13.000 572.900 13.100 572.800 13.000 572.800 H 10.100 C 10.045 572.800 10.000 572.845 10.000 572.900 V 578.900 C 10.000 578.955 10.045 579.000 10.100 579.000 H 13.000 C 13.100 579.000 13.000 578.900 13.000 579.000 V 584.800 C 13.000 584.900 13.100 584.800 13.000 584.800 H 10.100 C 10.045 584.800 10.000 584.845 10.000 584.900 V 590.900 C 10.000 590.955 10.045 591.000 10.100 591.000 H 13.000 C 13.100 591.000 13.000 590.900 13.000 591.000 V 596.800 C 13.000 596.900 13.100 596.800 13.000 596.800 H 10.100 C 10.045 596.800 10.000 596.845 10.000 596.900 V 602.900 C 10.000 602.955 10.045 603.000 10.100 603.000 H 13.000 C 13.100 603.000 13.000 602.900 13.000 603.000 V 608.800 C 13.000 608.900 13.100 608.800 13.000 608.800 H 10.100 C 10.045 608.800 10.000 608.845 10.000 608.900 V 614.900 C 10.000 614.955 10.045 615.000 10.100 615.000 H 13.000 C 13.100 615.000 13.000 614.900 13.000 615.000 V 620.800 C 13.000 620.900 13.100 620.800 13.000 620.800 H 10.100 C 10.045 620.800 10.000 620.845 10.000 620.900 V 626.900 C 10.000 626.955 10.045 627.000 10.100 627.000 H 13.000 C 13.100 627.000 13.000 626.900 13.000 627.000 V 632.800 C 13.000 632.900 13.100 632.800 13.000 632.800 H 10.100 C 10.045 632.800 10.000 632.845 10.000 632.900 V 638.900 C 10.000 638.955 10.045 639.000 10.100 639.000 H 13.000 C 13.100 639.000 13.000 638.900 13.000 639.000 V 644.800 C 13.000 644.900 13.100 644.800 13.000 644.800 H 10.100 C 10.045 644.800 10.000 644.845 10.000 644.900 V 650.900 C 10.000 650.955 10.045 651.000 10.100 651.000 H 13.000 C 13.100 651.000 13.000 650.900 13.000 651.000 V 656.800 C 13.000 656.900 13.100 656.800 13.000 656.800 H 10.100 C 10.045 656.800 10.000 656.845 10.000 656.900 V 662.900 C 10.000 662.955 10.045 663.000 10.100 663.000 H 13.000 C 13.100 663.000 13.000 662.900 13.000 663.000 V 668.800 C 13.000 668.900 13.100 668.800 13.000 668.800 H 10.100 C 10.045 668.800 10.000 668.845 10.000 668.900 V 674.900 C 10.000 674.955 10.045 675.000 10.100 675.000 H 13.000 C 13.100 675.000 13.000 674.900 13.000 675.000 V 680.800 C 13.000 680.900 13.100 680.800 13.000 680.800 H 10.100 C 10.045 680.800 10.000 680.845 10.000 680.900 V 686.900 C 10.000 686.955 10.045 687.000 10.100 687.000 H 13.000 C 13.100 687.000 13.000 686.900 13.000 687.000 V 692.800 C 13.000 692.900 13.100 692.800 13.000 692.800 H 10.100 C 10.045 692.800 10.000 692.845 10.000 692.900 V 698.900 C 10.000 698.955 10.045 699.000 10.100 699.000 H 13.000 C 13.100 699.000 13.000 698.900 13.000 699.000 V 704.800 C 13.000 704.900 13.100 704.800 13.000 704.800 H 10.100 C 10.045 704.800 10.000 704.845 10.000 704.900 V 710.900 C 10.000 710.955 10.045 711.000 10.100 711.000 H 13.000 C 13.100 711.000 13.000 710.900 13.000 711.000 V 716.800 C 13.000 716.900 13.100 716.800 13.000 716.800 H 10.100 C 10.045 716.800 10.000 716.845 10.000 716.900 V 722.900 C 10.000 722.955 10.045 723.000 10.100 723.000 H 13.000 C 13.100 723.000 13.000 722.900 13.000 723.000 V 728.800 C 13.000 728.900 13.100 728.800 13.000 728.800 H 10.100 C 10.045 728.800 10.000 728.845 10.000 728.900 V 740.400 C 10.000 740.455 10.045 740.500 10.100 740.500 H 13.100" stroke="rgb(0,0,0)" stroke-width="0.20" />
</g>
<g id="p-2" style="fill:none;stroke-linecap:round;stroke-linejoin:round;">
  <path d="M 327.300 549.300 H 324.400 C 324.300 549.300 324.400 549.400 324.400 549.300 V 546.500 C 324.400 546.400 324.300 546.500 324.400 546.500 H 330.200 C 330.300 546.500 330.200 546.400 330.200 546.500 V 549.300 C 330.200 549.400 330.300 549.300 330.200 549.300 H 327.300 Z" stroke="rgb(0,0,255)" stroke-width="0.20" />
  <path d="M 446.300 546.500 H 449.200 C 449.300 546.500 449.200 546.400 449.200 546.500 V 549.300 C 449.200 549.400 449.300 549.300 449.200 549.300 H 443.400 C 443.300 549.300 443.400 549.400 443.400 549.300 V 546.500 C 443.400 546.400 443.300 546.500 443.400 546.500 H 446.300 Z" stroke="rgb(0,0,255)" stroke-width="0.20" />
  <text alignment-baseline="hanging" font-size="4px" style="font-family: sans-serif ; font-weight: normal; font-style: normal; fill: rgb(255,0,0)" text-anchor="middle" transform="matrix( 1.000 0.000 0.000 1.000 386.800 641.500 )" /><path d="M 314.800 740.500 H 323.700 C 323.800 740.500 323.700 740.400 323.700 740.500 V 743.400 C 323.700 743.455 323.745 743.500 323.800 743.500 H 329.800 C 329.855 743.500 329.900 743.455 329.900 743.400 V 740.500 C 329.900 740.400 329.800 740.500 329.900 740.500 H 335.700 C 335.800 740.500 335.700 740.400 335.700 740.500 V 743.400 C 335.700 743.455 335.745 743.500 335.800 743.500 H 341.800 C 341.855 743.500 341.900 743.455 341.900 743.400 V 740.500 C 341.900 740.400 341.800 740.500 341.900 740.500 H 347.700 C 347.800 740.500 347.700 740.400 347.700 740.500 V 743.400 C 347.700 743.455 347.745 743.500 347.800 743.500 H 353.800 C 353.855 743.500 353.900 743.455 353.900 743.400 V 740.500 C 353.900 740.400 353.800 740.500 353.900 740.500 H 359.700 C 359.800 740.500 359.700 740.400 359.700 740.500 V 743.400 C 359.700 743.455 359.745 743.500 359.800 743.500 H 365.800 C 365.855 743.500 365.900 743.455 365.900 743.400 V 740.500 C 365.900 740.400 365.800 740.500 365.900 740.500 H 371.700 C 371.800 740.500 371.700 740.400 371.700 740.500 V 743.400 C 371.700 743.455 371.745 743.500 371.800 743.500 H 377.800 C 377.855 743.500 377.900 743.455 377.900 743.400 V 740.500 C 377.900 740.400 377.800 740.500 377.900 740.500 H 383.700 C 383.800 740.500 383.700 740.400 383.700 740.500 V 743.400 C 383.700 743.455 383.745 743.500 383.800 743.500 H 389.800 C 389.855 743.500 389.900 743.455 389.900 743.400 V 740.500 C 389.900 740.400 389.800 740.500 389.900 740.500 H 395.700 C 395.800 740.500 395.700 740.400 395.700 740.500 V 743.400 C 395.700 743.455 395.745 743.500 395.800 743.500 H 401.800 C 401.855 743.500 401.900 743.455 401.900 743.400 V 740.500 C 401.900 740.400 401.800 740.500 401.900 740.500 H 407.700 C 407.800 740.500 407.700 740.400 407.700 740.500 V 743.400 C 407.700 743.455 407.745 743.500 407.800 743.500 H 413.800 C 413.855 743.500 413.900 743.455 413.900 743.400 V 740.500 C 413.900 740.400 413.800 740.500 413.900 740.500 H 419.700 C 419.800 740.500 419.700 740.400 419.700 740.500 V 743.400 C 419.700 743.455 419.745 743.500 419.800 743.500 H 425.800 C 425.855 743.500 425.900 743.455 425.900 743.400 V 740.500 C 425.900 740.400 425.800 740.500 425.900 740.500 H 431.700 C 431.800 740.500 431.700 740.400 431.700 740.500 V 743.400 C 431.700 743.455 431.745 743.500 431.800 743.500 H 437.800 C 437.855 743.500 437.900 743.455 437.900 743.400 V 740.500 C 437.900 740.400 437.800 740.500 437.900 740.500 H 443.700 C 443.800 740.500 443.700 740.400 443.700 740.500 V 743.400 C 443.700 743.455 443.745 743.500 443.800 743.500 H 449.800 C 449.855 743.500 449.900 743.455 449.900 743.400 V 740.500 C 449.900 740.400 449.800 740.500 449.900 740.500 H 458.800 C 458.855 740.500 458.900 740.455 458.900 740.400 V 729.000 C 458.900 728.900 458.800 729.000 458.900 729.000 H 461.800 C 461.855 729.000 461.900 728.955 461.900 728.900 V 722.900 C 461.900 722.845 461.855 722.800 461.800 722.800 H 458.900 C 458.800 722.800 458.900 722.900 458.900 722.800 V 717.000 C 458.900 716.900 458.800 717.000 458.900 717.000 H 461.800 C 461.855 717.000 461.900 716.955 461.900 716.900 V 710.900 C 461.900 710.845 461.855 710.800 461.800 710.800 H 458.900 C 458.800 710.800 458.900 710.900 458.900 710.800 V 705.000 C 458.900 704.900 458.800 705.000 458.900 705.000 H 461.800 C 461.855 705.000 461.900 704.955 461.900 704.900 V 698.900 C 461.900 698.845 461.855 698.800 461.800 698.800 H 458.900 C 458.800 698.800 458.900 698.900 458.900 698.800 V 693.000 C 458.900 692.900 458.800 693.000 458.900 693.000 H 461.800 C 461.855 693.000 461.900 692.955 461.900 692.900 V 686.900 C 461.900 686.845 461.855 686.800 461.800 686.800 H 458.900 C 458.800 686.800 458.900 686.900 458.900 686.800 V 681.000 C 458.900 680.900 458.800 681.000 458.900 681.000 H 461.800 C 461.855 681.000 461.900 680.955 461.900 680.900 V 674.900 C 461.900 674.845 461.855 674.800 461.800 674.800 H 458.900 C 458.800 674.800 458.900 674.900 458.900 674.800 V 669.000 C 458.900 668.900 458.800 669.000 458.900 669.000 H 461.800 C 461.855 669.000 461.900 668.955 461.900 668.900 V 662.900 C 461.900 662.845 461.855 662.800 461.800 662.800 H 458.900 C 458.800 662.800 458.900 662.900 458.900 662.800 V 657.000 C 458.900 656.900 458.800 657.000 458.900 657.000 H 461.800 C 461.855 657.000 461.900 656.955 461.900 656.900 V 650.900 C 461.900 650.845 461.855 650.800 461.800 650.800 H 458.900 C 458.800 650.800 458.900 650.900 458.900 650.800 V 645.000 C 458.900 644.900 458.800 645.000 458.900 645.000 H 461.800 C 461.855 645.000 461.900 644.955 461.900 644.900 V 638.900 C 461.900 638.845 461.855 638.800 461.800 638.800 H 458.900 C 458.800 638.800 458.900 638.900 458.900 638.800 V 633.000 C 458.900 632.900 458.800 633.000 458.900 633.000 H 461.800 C 461.855 633.000 461.900 632.955 461.900 632.900 V 626.900 C 461.900 626.845 461.855 626.800 461.800 626.800 H 458.900 C 458.800 626.800 458.900 626.900 458.900 626.800 V 621.000 C 458.900 620.900 458.800 621.000 458.900 621.000 H 461.800 C 461.855 621.000 461.900 620.955 461.900 620.900 V 614.900 C 461.900 614.845 461.855 614.800 461.800 614.800 H 458.900 C 458.800 614.800 458.900 614.900 458.900 614.800 V 609.000 C 458.900 608.900 458.800 609.000 458.900 609.000 H 461.800 C 461.855 609.000 461.900 608.955 461.900 608.900 V 602.900 C 461.900 602.845 461.855 602.800 461.800 602.800 H 458.900 C 458.800 602.800 458.900 602.900 458.900 602.800 V 597.000 C 458.900 596.900 458.800 597.000 458.900 597.000 H 461.800 C 461.855 597.000 461.900 596.955 461.900 596.900 V 590.900 C 461.900 590.845 461.855 590.800 461.800 590.800 H 458.900 C 458.800 590.800 458.900 590.900 458.900 590.800 V 585.000 C 458.900 584.900 458.800 585.000 458.900 585.000 H 461.800 C 461.855 585.000 461.900 584.955 461.900 584.900 V 578.900 C 461.900 578.845 461.855 578.800 461.800 578.800 H 458.900 C 458.800 578.800 458.900 578.900 458.900 578.800 V 573.000 C 458.900 572.900 458.800 573.000 458.900 573.000 H 461.800 C 461.855 573.000 461.900 572.955 461.900 572.900 V 566.900 C 461.900 566.845 461.855 566.800 461.800 566.800 H 458.900 C 458.800 566.800 458.900 566.900 458.900 566.800 V 561.000 C 458.900 560.900 458.800 561.000 458.900 561.000 H 461.800 C 461.855 561.000 461.900 560.955 461.900 560.900 V 554.900 C 461.900 554.845 461.855 554.800 461.800 554.800 H 458.900 C 458.800 554.800 458.900 554.900 458.900 554.800 V 543.400 C 458.900 543.345 458.855 543.300 458.800 543.300 H 314.800 C 314.745 543.300 314.700 543.345 314.700 543.400 V 554.800 C 314.700 554.900 314.800 554.800 314.700 554.800 H 311.800 C 311.745 554.800 311.700 554.845 311.700 554.900 V 560.900 C 311.700 560.955 311.745 561.000 311.800 561.000 H 314.700 C 314.800 561.000 314.700 560.900 314.700 561.000 V 566.800 C 314.700 566.900 314.800 566.800 314.700 566.800 H 311.800 C 311.745 566.800 311.700 566.845 311.700 566.900 V 572.900 C 311.700 572.955 311.745 573.000 311.800 573.000 H 314.700 C 314.800 573.000 314.700 572.900 314.700 573.000 V 578.800 C 314.700 578.900 314.800 578.800 314.700 578.800 H 311.800 C 311.745 578.800 311.700 578.845 311.700 578.900 V 584.900 C 311.700 584.955 311.745 585.000 311.800 585.000 H 314.700 C 314.800 585.000 314.700 584.900 314.700 585.000 V 590.800 C 314.700 590.900 314.800 590.800 314.700 590.800 H 311.800 C 311.745 590.800 311.700 590.845 311.700 590.900 V 596.900 C 311.700 596.955 311.745 597.000 311.800 597.000 H 314.700 C 314.800 597.000 314.700 596.900 314.700 597.000 V 602.800 C 314.700 602.900 314.800 602.800 314.700 602.800 H 311.800 C 311.745 602.800 311.700 602.845 311.700 602.900 V 608.900 C 311.700 608.955 311.745 609.000 311.800 609.000 H 314.700 C 314.800 609.000 314.700 608.900 314.700 609.000 V 614.800 C 314.700 614.900 314.800 614.800 314.700 614.800 H 311.800 C 311.745 614.800 311.700 614.845 311.700 614.900 V 620.900 C 311.700 620.955 311.745 621.000 311.800 621.000 H 314.700 C 314.800 621.000 314.700 620.900 314.700 621.000 V 626.800 C 314.700 626.900 314.800 626.800 314.700 626.800 H 311.800 C 311.745 626.800 311.700 626.845 311.700 626.900 V 632.900 C 311.700 632.955 311.745 633.000 311.800 633.000 H 314.700 C 314.800 633.000 314.700 632.900 314.700 633.000 V 638.800 C 314.700 638.900 314.800 638.800 314.700 638.800 H 311.800 C 311.745 638.800 311.700 638.845 311.700 638.900 V 644.900 C 311.700 644.955 311.745 645.000 311.800 645.000 H 314.700 C 314.800 645.000 314.700 644.900 314.700 645.000 V 650.800 C 314.700 650.900 314.800 650.800 314.700 650.800 H 311.800 C 311.745 650.800 311.700 650.845 311.700 650.900 V 656.900 C 311.700 656.955 311.745 657.000 311.800 657.000 H 314.700 C 314.800 657.000 314.700 656.900 314.700 657.000 V 662.800 C 314.700 662.900 314.800 662.800 314.700 662.800 H 311.800 C 311.745 662.800 311.700 662.845 311.700 662.900 V 668.900 C 311.700 668.955 311.745 669.000 311.800 669.000 H 314.700 C 314.800 669.000 314.700 668.900 314.700 669.000 V 674.800 C 314.700 674.900 314.800 674.800 314.700 674.800 H 311.800 C 311.745 674.800 311.700 674.845 311.700 674.900 V 680.900 C 311.700 680.955 311.745 681.000 311.800 681.000 H 314.700 C 314.800 681.000 314.700 680.900 314.700 681.000 V 686.800 C 314.700 686.900 314.800 686.800 314.700 686.800 H 311.800 C 311.745 686.800 311.700 686.845 311.700 686.900 V 692.900 C 311.700 692.955 311.745 693.000 311.800 693.000 H 314.700 C 314.800 693.000 314.700 692.900 314.700 693.000 V 698.800 C 314.700 698.900 314.800 698.800 314.700 698.800 H 311.800 C 311.745 698.800 311.700 698.845 311.700 698.900 V 704.900 C 311.700 704.955 311.745 705.000 311.800 705.000 H 314.700 C 314.800 705.000 314.700 704.900 314.700 705.000 V 710.800 C 314.700 710.900 314.800 710.800 314.700 710.800 H 311.800 C 311.745 710.800 311.700 710.845 311.700 710.900 V 716.900 C 311.700 716.955 311.745 717.000 311.800 717.000 H 314.700 C 314.800 717.000 314.700 716.900 314.700 717.000 V 722.800 C 314.700 722.900 314.800 722.800 314.700 722.800 H 311.800 C 311.745 722.800 311.700 722.845 311.700 722.900 V 728.900 C 311.700 728.955 311.745 729.000 311.800 729.000 H 314.700 C 314.800 729.000 314.700 728.900 314.700 729.000 V 740.400 C 314.700 740.455 314.745 740.500 314.800 740.500" stroke="rgb(0,0,0)" stroke-width="0.20" />
</g>
<g id="p-3" style="fill:none;stroke-linecap:round;stroke-linejoin:round;">
  <path d="M 327.300 347.600 H 324.400 C 324.300 347.600 324.400 347.700 324.400 347.600 V 344.800 C 324.400 344.700 324.300 344.800 324.400 344.800 H 330.200 C 330.300 344.800 330.200 344.700 330.200 344.800 V 347.600 C 330.200 347.700 330.300 347.600 330.200 347.600 H 327.300 Z" stroke="rgb(0,0,255)" stroke-width="0.20" />
  <path d="M 446.300 344.800 H 449.200 C 449.300 344.800 449.200 344.700 449.200 344.800 V 347.600 C 449.200 347.700 449.300 347.600 449.200 347.600 H 443.400 C 443.300 347.600 443.400 347.700 443.400 347.600 V 344.800 C 443.400 344.700 443.300 344.800 443.400 344.800 H 446.300 Z" stroke="rgb(0,0,255)" stroke-width="0.20" />
  <text alignment-baseline="hanging" font-size="4px" style="font-family: sans-serif ; font-weight: normal; font-style: normal; fill: rgb(255,0,0)" text-anchor="middle" transform="matrix( 1.000 0.000 0.000 1.000 386.800 439.800 )" /><path d="M 314.800 538.800 H 323.700 C 323.800 538.800 323.700 538.700 323.700 538.800 V 541.700 C 323.700 541.755 323.745 541.800 323.800 541.800 H 329.800 C 329.855 541.800 329.900 541.755 329.900 541.700 V 538.800 C 329.900 538.700 329.800 538.800 329.900 538.800 H 335.700 C 335.800 538.800 335.700 538.700 335.700 538.800 V 541.700 C 335.700 541.755 335.745 541.800 335.800 541.800 H 341.800 C 341.855 541.800 341.900 541.755 341.900 541.700 V 538.800 C 341.900 538.700 341.800 538.800 341.900 538.800 H 347.700 C 347.800 538.800 347.700 538.700 347.700 538.800 V 541.700 C 347.700 541.755 347.745 541.800 347.800 541.800 H 353.800 C 353.855 541.800 353.900 541.755 353.900 541.700 V 538.800 C 353.900 538.700 353.800 538.800 353.900 538.800 H 359.700 C 359.800 538.800 359.700 538.700 359.700 538.800 V 541.700 C 359.700 541.755 359.745 541.800 359.800 541.800 H 365.800 C 365.855 541.800 365.900 541.755 365.900 541.700 V 538.800 C 365.900 538.700 365.800 538.800 365.900 538.800 H 371.700 C 371.800 538.800 371.700 538.700 371.700 538.800 V 541.700 C 371.700 541.755 371.745 541.800 371.800 541.800 H 377.800 C 377.855 541.800 377.900 541.755 377.900 541.700 V 538.800 C 377.900 538.700 377.800 538.800 377.900 538.800 H 383.700 C 383.800 538.800 383.700 538.700 383.700 538.800 V 541.700 C 383.700 541.755 383.745 541.800 383.800 541.800 H 389.800 C 389.855 541.800 389.900 541.755 389.900 541.700 V 538.800 C 389.900 538.700 389.800 538.800 389.900 538.800 H 395.700 C 395.800 538.800 395.700 538.700 395.700 538.800 V 541.700 C 395.700 541.755 395.745 541.800 395.800 541.800 H 401.800 C 401.855 541.800 401.900 541.755 401.900 541.700 V 538.800 C 401.900 538.700 401.800 538.800 401.900 538.800 H 407.700 C 407.800 538.800 407.700 538.700 407.700 538.800 V 541.700 C 407.700 541.755 407.745 541.800 407.800 541.800 H 413.800 C 413.855 541.800 413.900 541.755 413.900 541.700 V 538.800 C 413.900 538.700 413.800 538.800 413.900 538.800 H 419.700 C 419.800 538.800 419.700 538.700 419.700 538.800 V 541.700 C 419.700 541.755 419.745 541.800 419.800 541.800 H 425.800 C 425.855 541.800 425.900 541.755 425.900 541.700 V 538.800 C 425.900 538.700 425.800 538.800 425.900 538.800 H 431.700 C 431.800 538.800 431.700 538.700 431.700 538.800 V 541.700 C 431.700 541.755 431.745 541.800 431.800 541.800 H 437.800 C 437.855 541.800 437.900 541.755 437.900 541.700 V 538.800 C 437.900 538.700 437.800 538.800 437.900 538.800 H 443.700 C 443.800 538.800 443.700 538.700 443.700 538.800 V 541.700 C 443.700 541.755 443.745 541.800 443.800 541.800 H 449.800 C 449.855 541.800 449.900 541.755 449.900 541.700 V 538.800 C 449.900 538.700 449.800 538.800 449.900 538.800 H 458.800 C 458.855 538.800 458.900 538.755 458.900 538.700 V 527.300 C 458.900 527.200 458.800 527.300 458.900 527.300 H 461.800 C 461.855 527.300 461.900 527.255 461.900 527.200 V 521.200 C 461.900 521.145 461.855 521.100 461.800 521.100 H 458.900 C 458.800 521.100 458.900 521.200 458.900 521.100 V 515.300 C 458.900 515.200 458.800 515.300 458.900 515.300 H 461.800 C 461.855 515.300 461.900 515.255 461.900 515.200 V 509.200 C 461.900 509.145 461.855 509.100 461.800 509.100 H 458.900 C 458.800 509.100 458.900 509.200 458.900 509.100 V 503.300 C 458.900 503.200 458.800 503.300 458.900 503.300 H 461.800 C 461.855 503.300 461.900 503.255 461.900 503.200 V 497.200 C 461.900 497.145 461.855 497.100 461.800 497.100 H 458.900 C 458.800 497.100 458.900 497.200 458.900 497.100 V 491.300 C 458.900 491.200 458.800 491.300 458.900 491.300 H 461.800 C 461.855 491.300 461.900 491.255 461.900 491.200 V 485.200 C 461.900 485.145 461.855 485.100 461.800 485.100 H 458.900 C 458.800 485.100 458.900 485.200 458.900 485.100 V 479.300 C 458.900 479.200 458.800 479.300 458.900 479.300 H 461.800 C 461.855 479.300 461.900 479.255 461.900 479.200 V 473.200 C 461.900 473.145 461.855 473.100 461.800 473.100 H 458.900 C 458.800 473.100 458.900 473.200 458.900 473.100 V 467.300 C 458.900 467.200 458.800 467.300 458.900 467.300 H 461.800 C 461.855 467.300 461.900 467.255 461.900 467.200 V 461.200 C 461.900 461.145 461.855 461.100 461.800 461.100 H 458.900 C 458.800 461.100 458.900 461.200 458.900 461.100 V 455.300 C 458.900 455.200 458.800 455.300 458.900 455.300 H 461.800 C 461.855 455.300 461.900 455.255 461.900 455.200 V 449.200 C 461.900 449.145 461.855 449.100 461.800 449.100 H 458.900 C 458.800 449.100 458.900 449.200 458.900 449.100 V 443.300 C 458.900 443.200 458.800 443.300 458.900 443.300 H 461.800 C 461.855 443.300 461.900 443.255 461.900 443.200 V 437.200 C 461.900 437.145 461.855 437.100 461.800 437.100 H 458.900 C 458.800 437.100 458.900 437.200 458.900 437.100 V 431.300 C 458.900 431.200 458.800 431.300 458.900 431.300 H 461.800 C 461.855 431.300 461.900 431.255 461.900 431.200 V 425.200 C 461.900 425.145 461.855 425.100 461.800 425.100 H 458.900 C 458.800 425.100 458.900 425.200 458.900 425.100 V 419.300 C 458.900 419.200 458.800 419.300 458.900 419.300 H 461.800 C 461.855 419.300 461.900 419.255 461.900 419.200 V 413.200 C 461.900 413.145 461.855 413.100 461.800 413.100 H 458.900 C 458.800 413.100 458.900 413.200 458.900 413.100 V 407.300 C 458.900 407.200 458.800 407.300 458.900 407.300 H 461.800 C 461.855 407.300 461.900 407.255 461.900 407.200 V 401.200 C 461.900 401.145 461.855 401.100 461.800 401.100 H 458.900 C 458.800 401.100 458.900 401.200 458.900 401.100 V 395.300 C 458.900 395.200 458.800 395.300 458.900 395.300 H 461.800 C 461.855 395.300 461.900 395.255 461.900 395.200 V 389.200 C 461.900 389.145 461.855 389.100 461.800 389.100 H 458.900 C 458.800 389.100 458.900 389.200 458.900 389.100 V 383.300 C 458.900 383.200 458.800 383.300 458.900 383.300 H 461.800 C 461.855 383.300 461.900 383.255 461.900 383.200 V 377.200 C 461.900 377.145 461.855 377.100 461.800 377.100 H 458.900 C 458.800 377.100 458.900 377.200 458.900 377.100 V 371.300 C 458.900 371.200 458.800 371.300 458.900 371.300 H 461.800 C 461.855 371.300 461.900 371.255 461.900 371.200 V 365.200 C 461.900 365.145 461.855 365.100 461.800 365.100 H 458.900 C 458.800 365.100 458.900 365.200 458.900 365.100 V 359.300 C 458.900 359.200 458.800 359.300 458.900 359.300 H 461.800 C 461.855 359.300 461.900 359.255 461.900 359.200 V 353.200 C 461.900 353.145 461.855 353.100 461.800 353.100 H 458.900 C 458.800 353.100 458.900 353.200 458.900 353.100 V 341.700 C 458.900 341.645 458.855 341.600 458.800 341.600 H 314.800 C 314.745 341.600 314.700 341.645 314.700 341.700 V 353.100 C 314.700 353.200 314.800 353.100 314.700 353.100 H 311.800 C 311.745 353.100 311.700 353.145 311.700 353.200 V 359.200 C 311.700 359.255 311.745 359.300 311.800 359.300 H 314.700 C 314.800 359.300 314.700 359.200 314.700 359.300 V 365.100 C 314.700 365.200 314.800 365.100 314.700 365.100 H 311.800 C 311.745 365.100 311.700 365.145 311.700 365.200 V 371.200 C 311.700 371.255 311.745 371.300 311.800 371.300 H 314.700 C 314.800 371.300 314.700 371.200 314.700 371.300 V 377.100 C 314.700 377.200 314.800 377.100 314.700 377.100 H 311.800 C 311.745 377.100 311.700 377.145 311.700 377.200 V 383.200 C 311.700 383.255 311.745 383.300 311.800 383.300 H 314.700 C 314.800 383.300 314.700 383.200 314.700 383.300 V 389.100 C 314.700 389.200 314.800 389.100 314.700 389.100 H 311.800 C 311.745 389.100 311.700 389.145 311.700 389.200 V 395.200 C 311.700 395.255 311.745 395.300 311.800 395.300 H 314.700 C 314.800 395.300 314.700 395.200 314.700 395.300 V 401.100 C 314.700 401.200 314.800 401.100 314.700 401.100 H 311.800 C 311.745 401.100 311.700 401.145 311.700 401.200 V 407.200 C 311.700 407.255 311.745 407.300 311.800 407.300 H 314.700 C 314.800 407.300 314.700 407.200 314.700 407.300 V 413.100 C 314.700 413.200 314.800 413.100 314.700 413.100 H 311.800 C 311.745 413.100 311.700 413.145 311.700 413.200 V 419.200 C 311.700 419.255 311.745 419.300 311.800 419.300 H 314.700 C 314.800 419.300 314.700 419.200 314.700 419.300 V 425.100 C 314.700 425.200 314.800 425.100 314.700 425.100 H 311.800 C 311.745 425.100 311.700 425.145 311.700 425.200 V 431.200 C 311.700 431.255 311.745 431.300 311.800 431.300 H 314.700 C 314.800 431.300 314.700 431.200 314.700 431.300 V 437.100 C 314.700 437.200 314.800 437.100 314.700 437.100 H 311.800 C 311.745 437.100 311.700 437.145 311.700 437.200 V 443.200 C 311.700 443.255 311.745 443.300 311.800 443.300 H 314.700 C 314.800 443.300 314.700 443.200 314.700 443.300 V 449.100 C 314.700 449.200 314.800 449.100 314.700 449.100 H 311.800 C 311.745 449.100 311.700 449.145 311.700 449.200 V 455.200 C 311.700 455.255 311.745 455.300 311.800 455.300 H 314.700 C 314.800 455.300 314.700 455.200 314.700 455.300 V 461.100 C 314.700 461.200 314.800 461.100 314.700 461.100 H 311.800 C 311.745 461.100 311.700 461.145 311.700 461.200 V 467.200 C 311.700 467.255 311.745 467.300 311.800 467.300 H 314.700 C 314.800 467.300 314.700 467.200 314.700 467.300 V 473.100 C 314.700 473.200 314.800 473.100 314.700 473.100 H 311.800 C 311.745 473.100 311.700 473.145 311.700 473.200 V 479.200 C 311.700 479.255 311.745 479.300 311.800 479.300 H 314.700 C 314.800 479.300 314.700 479.200 314.700 479.300 V 485.100 C 314.700 485.200 314.800 485.100 314.700 485.100 H 311.800 C 311.745 485.100 311.700 485.145 311.700 485.200 V 491.200 C 311.700 491.255 311.745 491.300 311.800 491.300 H 314.700 C 314.800 491.300 314.700 491.200 314.700 491.300 V 497.100 C 314.700 497.200 314.800 497.100 314.700 497.100 H 311.800 C 311.745 497.100 311.700 497.145 311.700 497.200 V 503.200 C 311.700 503.255 311.745 503.300 311.800 503.300 H 314.700 C 314.800 503.300 314.700 503.200 314.700 503.300 V 509.100 C 314.700 509.200 314.800 509.100 314.700 509.100 H 311.800 C 311.745 509.100 311.700 509.145 311.700 509.200 V 515.200 C 311.700 515.255 311.745 515.300 311.800 515.300 H 314.700 C 314.800 515.300 314.700 515.200 314.700 515.300 V 521.100 C 314.700 521.200 314.800 521.100 314.700 521.100 H 311.800 C 311.745 521.100 311.700 521.145 311.700 521.200 V 527.200 C 311.700 527.255 311.745 527.300 311.800 527.300 H 314.700 C 314.800 527.300 314.700 527.200 314.700 527.300 V 538.700 C 314.700 538.755 314.745 538.800 314.800 538.800" stroke="rgb(0,0,0)" stroke-width="0.20" />
</g>
<g id="p-4" style="fill:none;stroke-linecap:round;stroke-linejoin:round;">
  <path d="M 25.600 347.600 H 22.700 C 22.600 347.600 22.700 347.700 22.700 347.600 V 344.800 C 22.700 344.700 22.600 344.800 22.700 344.800 H 28.500 C 28.600 344.800 28.500 344.700 28.500 344.800 V 347.600 C 28.500 347.700 28.600 347.600 28.500 347.600 H 25.600 Z" stroke="rgb(0,0,255)" stroke-width="0.20" />
  <path d="M 294.600 344.800 H 297.500 C 297.600 344.800 297.500 344.700 297.500 344.800 V 347.600 C 297.500 347.700 297.600 347.600 297.500 347.600 H 291.700 C 291.600 347.600 291.700 347.700 291.700 347.600 V 344.800 C 291.700 344.700 291.600 344.800 291.700 344.800 H 294.600 Z" stroke="rgb(0,0,255)" stroke-width="0.20" />
  <text alignment-baseline="hanging" font-size="4px" style="font-family: sans-serif ; font-weight: normal; font-style: normal; fill: rgb(255,0,0)" text-anchor="middle" transform="matrix( 1.000 0.000 0.000 1.000 160.100 439.800 )" /><path d="M 13.100 538.800 H 19.000 C 19.100 538.800 19.000 538.700 19.000 538.800 V 541.700 C 19.000 541.755 19.045 541.800 19.100 541.800 H 25.100 C 25.155 541.800 25.200 541.755 25.200 541.700 V 538.800 C 25.200 538.700 25.100 538.800 25.200 538.800 H 31.000 C 31.100 538.800 31.000 538.700 31.000 538.800 V 541.700 C 31.000 541.755 31.045 541.800 31.100 541.800 H 37.100 C 37.155 541.800 37.200 541.755 37.200 541.700 V 538.800 C 37.200 538.700 37.100 538.800 37.200 538.800 H 43.000 C 43.100 538.800 43.000 538.700 43.000 538.800 V 541.700 C 43.000 541.755 43.045 541.800 43.100 541.800 H 49.100 C 49.155 541.800 49.200 541.755 49.200 541.700 V 538.800 C 49.200 538.700 49.100 538.800 49.200 538.800 H 55.000 C 55.100 538.800 55.000 538.700 55.000 538.800 V 541.700 C 55.000 541.755 55.045 541.800 55.100 541.800 H 61.100 C 61.155 541.800 61.200 541.755 61.200 541.700 V 538.800 C 61.200 538.700 61.100 538.800 61.200 538.800 H 67.000 C 67.100 538.800 67.000 538.700 67.000 538.800 V 541.700 C 67.000 541.755 67.045 541.800 67.100 541.800 H 73.100 C 73.155 541.800 73.200 541.755 73.200 541.700 V 538.800 C 73.200 538.700 73.100 538.800 73.200 538.800 H 79.000 C 79.100 538.800 79.000 538.700 79.000 538.800 V 541.700 C 79.000 541.755 79.045 541.800 79.100 541.800 H 85.100 C 85.155 541.800 85.200 541.755 85.200 541.700 V 538.800 C 85.200 538.700 85.100 538.800 85.200 538.800 H 91.000 C 91.100 538.800 91.000 538.700 91.000 538.800 V 541.700 C 91.000 541.755 91.045 541.800 91.100 541.800 H 97.100 C 97.155 541.800 97.200 541.755 97.200 541.700 V 538.800 C 97.200 538.700 97.100 538.800 97.200 538.800 H 103.000 C 103.100 538.800 103.000 538.700 103.000 538.800 V 541.700 C 103.000 541.755 103.045 541.800 103.100 541.800 H 109.100 C 109.155 541.800 109.200 541.755 109.200 541.700 V 538.800 C 109.200 538.700 109.100 538.800 109.200 538.800 H 115.000 C 115.100 538.800 115.000 538.700 115.000 538.800 V 541.700 C 115.000 541.755 115.045 541.800 115.100 541.800 H 121.100 C 121.155 541.800 121.200 541.755 121.200 541.700 V 538.800 C 121.200 538.700 121.100 538.800 121.200 538.800 H 127.000 C 127.100 538.800 127.000 538.700 127.000 538.800 V 541.700 C 127.000 541.755 127.045 541.800 127.100 541.800 H 133.100 C 133.155 541.800 133.200 541.755 133.200 541.700 V 538.800 C 133.200 538.700 133.100 538.800 133.200 538.800 H 139.000 C 139.100 538.800 139.000 538.700 139.000 538.800 V 541.700 C 139.000 541.755 139.045 541.800 139.100 541.800 H 145.100 C 145.155 541.800 145.200 541.755 145.200 541.700 V 538.800 C 145.200 538.700 145.100 538.800 145.200 538.800 H 151.000 C 151.100 538.800 151.000 538.700 151.000 538.800 V 541.700 C 151.000 541.755 151.045 541.800 151.100 541.800 H 157.100 C 157.155 541.800 157.200 541.755 157.200 541.700 V 538.800 C 157.200 538.700 157.100 538.800 157.200 538.800 H 163.000 C 163.100 538.800 163.000 538.700 163.000 538.800 V 541.700 C 163.000 541.755 163.045 541.800 163.100 541.800 H 169.100 C 169.155 541.800 169.200 541.755 169.200 541.700 V 538.800 C 169.200 538.700 169.100 538.800 169.200 538.800 H 175.000 C 175.100 538.800 175.000 538.700 175.000 538.800 V 541.700 C 175.000 541.755 175.045 541.800 175.100 541.800 H 181.100 C 181.155 541.800 181.200 541.755 181.200 541.700 V 538.800 C 181.200 538.700 181.100 538.800 181.200 538.800 H 187.000 C 187.100 538.800 187.000 538.700 187.000 538.800 V 541.700 C 187.000 541.755 187.045 541.800 187.100 541.800 H 193.100 C 193.155 541.800 193.200 541.755 193.200 541.700 V 538.800 C 193.200 538.700 193.100 538.800 193.200 538.800 H 199.000 C 199.100 538.800 199.000 538.700 199.000 538.800 V 541.700 C 199.000 541.755 199.045 541.800 199.100 541.800 H 205.100 C 205.155 541.800 205.200 541.755 205.200 541.700 V 538.800 C 205.200 538.700 205.100 538.800 205.200 538.800 H 211.000 C 211.100 538.800 211.000 538.700 211.000 538.800 V 541.700 C 211.000 541.755 211.045 541.800 211.100 541.800 H 217.100 C 217.155 541.800 217.200 541.755 217.200 541.700 V 538.800 C 217.200 538.700 217.100 538.800 217.200 538.800 H 223.000 C 223.100 538.800 223.000 538.700 223.000 538.800 V 541.700 C 223.000 541.755 223.045 541.800 223.100 541.800 H 229.100 C 229.155 541.800 229.200 541.755 229.200 541.700 V 538.800 C 229.200 538.700 229.100 538.800 229.200 538.800 H 235.000 C 235.100 538.800 235.000 538.700 235.000 538.800 V 541.700 C 235.000 541.755 235.045 541.800 235.100 541.800 H 241.100 C 241.155 541.800 241.200 541.755 241.200 541.700 V 538.800 C 241.200 538.700 241.100 538.800 241.200 538.800 H 247.000 C 247.100 538.800 247.000 538.700 247.000 538.800 V 541.700 C 247.000 541.755 247.045 541.800 247.100 541.800 H 253.100 C 253.155 541.800 253.200 541.755 253.200 541.700 V 538.800 C 253.200 538.700 253.100 538.800 253.200 538.800 H 259.000 C 259.100 538.800 259.000 538.700 259.000 538.800 V 541.700 C 259.000 541.755 259.045 541.800 259.100 541.800 H 265.100 C 265.155 541.800 265.200 541.755 265.200 541.700 V 538.800 C 265.200 538.700 265.100 538.800 265.200 538.800 H 271.000 C 271.100 538.800 271.000 538.700 271.000 538.800 V 541.700 C 271.000 541.755 271.045 541.800 271.100 541.800 H 277.100 C 277.155 541.800 277.200 541.755 277.200 541.700 V 538.800 C 277.200 538.700 277.100 538.800 277.200 538.800 H 283.000 C 283.100 538.800 283.000 538.700 283.000 538.800 V 541.700 C 283.000 541.755 283.045 541.800 283.100 541.800 H 289.100 C 289.155 541.800 289.200 541.755 289.200 541.700 V 538.800 C 289.200 538.700 289.100 538.800 289.200 538.800 H 295.000 C 295.100 538.800 295.000 538.700 295.000 538.800 V 541.700 C 295.000 541.755 295.045 541.800 295.100 541.800 H 301.100 C 301.155 541.800 301.200 541.755 301.200 541.700 V 538.800 C 301.200 538.700 301.100 538.800 301.200 538.800 H 307.100 H 310.100 C 310.155 538.800 310.200 538.755 310.200 538.700 V 527.200 C 310.200 527.145 310.155 527.100 310.100 527.100 H 307.200 C 307.100 527.100 307.200 527.200 307.200 527.100 V 521.300 C 307.200 521.200 307.100 521.300 307.200 521.300 H 310.100 C 310.155 521.300 310.200 521.255 310.200 521.200 V 515.200 C 310.200 515.145 310.155 515.100 310.100 515.100 H 307.200 C 307.100 515.100 307.200 515.200 307.200 515.100 V 509.300 C 307.200 509.200 307.100 509.300 307.200 509.300 H 310.100 C 310.155 509.300 310.200 509.255 310.200 509.200 V 503.200 C 310.200 503.145 310.155 503.100 310.100 503.100 H 307.200 C 307.100 503.100 307.200 503.200 307.200 503.100 V 497.300 C 307.200 497.200 307.100 497.300 307.200 497.300 H 310.100 C 310.155 497.300 310.200 497.255 310.200 497.200 V 491.200 C 310.200 491.145 310.155 491.100 310.100 491.100 H 307.200 C 307.100 491.100 307.200 491.200 307.200 491.100 V 485.300 C 307.200 485.200 307.100 485.300 307.200 485.300 H 310.100 C 310.155 485.300 310.200 485.255 310.200 485.200 V 479.200 C 310.200 479.145 310.155 479.100 310.100 479.100 H 307.200 C 307.100 479.100 307.200 479.200 307.200 479.100 V 473.300 C 307.200 473.200 307.100 473.300 307.200 473.300 H 310.100 C 310.155 473.300 310.200 473.255 310.200 473.200 V 467.200 C 310.200 467.145 310.155 467.100 310.100 467.100 H 307.200 C 307.100 467.100 307.200 467.200 307.200 467.100 V 461.300 C 307.200 461.200 307.100 461.300 307.200 461.300 H 310.100 C 310.155 461.300 310.200 461.255 310.200 461.200 V 455.200 C 310.200 455.145 310.155 455.100 310.100 455.100 H 307.200 C 307.100 455.100 307.200 455.200 307.200 455.100 V 449.300 C 307.200 449.200 307.100 449.300 307.200 449.300 H 310.100 C 310.155 449.300 310.200 449.255 310.200 449.200 V 443.200 C 310.200 443.145 310.155 443.100 310.100 443.100 H 307.200 C 307.100 443.100 307.200 443.200 307.200 443.100 V 437.300 C 307.200 437.200 307.100 437.300 307.200 437.300 H 310.100 C 310.155 437.300 310.200 437.255 310.200 437.200 V 431.200 C 310.200 431.145 310.155 431.100 310.100 431.100 H 307.200 C 307.100 431.100 307.200 431.200 307.200 431.100 V 425.300 C 307.200 425.200 307.100 425.300 307.200 425.300 H 310.100 C 310.155 425.300 310.200 425.255 310.200 425.200 V 419.200 C 310.200 419.145 310.155 419.100 310.100 419.100 H 307.200 C 307.100 419.100 307.200 419.200 307.200 419.100 V 413.300 C 307.200 413.200 307.100 413.300 307.200 413.300 H 310.100 C 310.155 413.300 310.200 413.255 310.200 413.200 V 407.200 C 310.200 407.145 310.155 407.100 310.100 407.100 H 307.200 C 307.100 407.100 307.200 407.200 307.200 407.100 V 401.300 C 307.200 401.200 307.100 401.300 307.200 401.300 H 310.100 C 310.155 401.300 310.200 401.255 310.200 401.200 V 395.200 C 310.200 395.145 310.155 395.100 310.100 395.100 H 307.200 C 307.100 395.100 307.200 395.200 307.200 395.100 V 389.300 C 307.200 389.200 307.100 389.300 307.200 389.300 H 310.100 C 310.155 389.300 310.200 389.255 310.200 389.200 V 383.200 C 310.200 383.145 310.155 383.100 310.100 383.100 H 307.200 C 307.100 383.100 307.200 383.200 307.200 383.100 V 377.300 C 307.200 377.200 307.100 377.300 307.200 377.300 H 310.100 C 310.155 377.300 310.200 377.255 310.200 377.200 V 371.200 C 310.200 371.145 310.155 371.100 310.100 371.100 H 307.200 C 307.100 371.100 307.200 371.200 307.200 371.100 V 365.300 C 307.200 365.200 307.100 365.300 307.200 365.300 H 310.100 C 310.155 365.300 310.200 365.255 310.200 365.200 V 359.200 C 310.200 359.145 310.155 359.100 310.100 359.100 H 307.200 C 307.100 359.100 307.200 359.200 307.200 359.100 V 353.300 C 307.200 353.200 307.100 353.300 307.200 353.300 H 310.100 C 310.155 353.300 310.200 353.255 310.200 353.200 V 341.700 C 310.200 341.645 310.155 341.600 310.100 341.600 H 307.100 H 13.100 H 10.100 C 10.045 341.600 10.000 341.645 10.000 341.700 V 353.200 C 10.000 353.255 10.045 353.300 10.100 353.300 H 13.000 C 13.100 353.300 13.000 353.200 13.000 353.300 V 359.100 C 13.000 359.200 13.100 359.100 13.000 359.100 H 10.100 C 10.045 359.100 10.000 359.145 10.000 359.200 V 365.200 C 10.000 365.255 10.045 365.300 10.100 365.300 H 13.000 C 13.100 365.300 13.000 365.200 13.000 365.300 V 371.100 C 13.000 371.200 13.100 371.100 13.000 371.100 H 10.100 C 10.045 371.100 10.000 371.145 10.000 371.200 V 377.200 C 10.000 377.255 10.045 377.300 10.100 377.300 H 13.000 C 13.100 377.300 13.000 377.200 13.000 377.300 V 383.100 C 13.000 383.200 13.100 383.100 13.000 383.100 H 10.100 C 10.045 383.100 10.000 383.145 10.000 383.200 V 389.200 C 10.000 389.255 10.045 389.300 10.100 389.300 H 13.000 C 13.100 389.300 13.000 389.200 13.000 389.300 V 395.100 C 13.000 395.200 13.100 395.100 13.000 395.100 H 10.100 C 10.045 395.100 10.000 395.145 10.000 395.200 V 401.200 C 10.000 401.255 10.045 401.300 10.100 401.300 H 13.000 C 13.100 401.300 13.000 401.200 13.000 401.300 V 407.100 C 13.000 407.200 13.100 407.100 13.000 407.100 H 10.100 C 10.045 407.100 10.000 407.145 10.000 407.200 V 413.200 C 10.000 413.255 10.045 413.300 10.100 413.300 H 13.000 C 13.100 413.300 13.000 413.200 13.000 413.300 V 419.100 C 13.000 419.200 13.100 419.100 13.000 419.100 H 10.100 C 10.045 419.100 10.000 419.145 10.000 419.200 V 425.200 C 10.000 425.255 10.045 425.300 10.100 425.300 H 13.000 C 13.100 425.300 13.000 425.200 13.000 425.300 V 431.100 C 13.000 431.200 13.100 431.100 13.000 431.100 H 10.100 C 10.045 431.100 10.000 431.145 10.000 431.200 V 437.200 C 10.000 437.255 10.045 437.300 10.100 437.300 H 13.000 C 13.100 437.300 13.000 437.200 13.000 437.300 V 443.100 C 13.000 443.200 13.100 443.100 13.000 443.100 H 10.100 C 10.045 443.100 10.000 443.145 10.000 443.200 V 449.200 C 10.000 449.255 10.045 449.300 10.100 449.300 H 13.000 C 13.100 449.300 13.000 449.200 13.000 449.300 V 455.100 C 13.000 455.200 13.100 455.100 13.000 455.100 H 10.100 C 10.045 455.100 10.000 455.145 10.000 455.200 V 461.200 C 10.000 461.255 10.045 461.300 10.100 461.300 H 13.000 C 13.100 461.300 13.000 461.200 13.000 461.300 V 467.100 C 13.000 467.200 13.100 467.100 13.000 467.100 H 10.100 C 10.045 467.100 10.000 467.145 10.000 467.200 V 473.200 C 10.000 473.255 10.045 473.300 10.100 473.300 H 13.000 C 13.100 473.300 13.000 473.200 13.000 473.300 V 479.100 C 13.000 479.200 13.100 479.100 13.000 479.100 H 10.100 C 10.045 479.100 10.000 479.145 10.000 479.200 V 485.200 C 10.000 485.255 10.045 485.300 10.100 485.300 H 13.000 C 13.100 485.300 13.000 485.200 13.000 485.300 V 491.100 C 13.000 491.200 13.100 491.100 13.000 491.100 H 10.100 C 10.045 491.100 10.000 491.145 10.000 491.200 V 497.200 C 10.000 497.255 10.045 497.300 10.100 497.300 H 13.000 C 13.100 497.300 13.000 497.200 13.000 497.300 V 503.100 C 13.000 503.200 13.100 503.100 13.000 503.100 H 10.100 C 10.045 503.100 10.000 503.145 10.000 503.200 V 509.200 C 10.000 509.255 10.045 509.300 10.100 509.300 H 13.000 C 13.100 509.300 13.000 509.200 13.000 509.300 V 515.100 C 13.000 515.200 13.100 515.100 13.000 515.100 H 10.100 C 10.045 515.100 10.000 515.145 10.000 515.200 V 521.200 C 10.000 521.255 10.045 521.300 10.100 521.300 H 13.000 C 13.100 521.300 13.000 521.200 13.000 521.300 V 527.100 C 13.000 527.200 13.100 527.100 13.000 527.100 H 10.100 C 10.045 527.100 10.000 527.145 10.000 527.200 V 538.700 C 10.000 538.755 10.045 538.800 10.100 538.800 H 13.100" stroke="rgb(0,0,0)" stroke-width="0.20" />
</g>
<g id="p-5" style="fill:none;stroke-linecap:round;stroke-linejoin:round;">
  <path d="M 18.500 333.000 C 18.500 333.268 18.423 333.531 18.278 333.757 C 18.133 333.983 17.926 334.162 17.682 334.273 C 17.437 334.385 17.166 334.424 16.901 334.386 C 16.635 334.348 16.386 334.234 16.183 334.058 C 15.980 333.882 15.832 333.652 15.757 333.394 C 15.681 333.137 15.681 332.863 15.757 332.606 C 15.832 332.348 15.980 332.118 16.183 331.942 C 16.386 331.766 16.635 331.652 16.901 331.614 C 17.166 331.576 17.437 331.615 17.682 331.727 C 17.926 331.838 18.133 332.017 18.278 332.243 C 18.423 332.469 18.500 332.732 18.500 333.000 Z" stroke="rgb(0,0,255)" stroke-width="0.20" />
  <text alignment-baseline="hanging" font-size="4px" style="font-family: sans-serif ; font-weight: normal; font-style: normal; fill: rgb(255,0,0)" text-anchor="middle" transform="matrix( 1.000 0.000 0.000 1.000 174.100 263.100 )" /><path d="M 17.100 340.100 H 27.100 H 33.100 C 33.155 340.100 33.200 340.055 33.200 340.000 V 337.100 C 33.200 337.000 33.100 337.100 33.200 337.100 H 39.000 C 39.100 337.100 39.000 337.000 39.000 337.100 V 340.000 C 39.000 340.055 39.045 340.100 39.100 340.100 H 45.100 C 45.155 340.100 45.200 340.055 45.200 340.000 V 337.100 C 45.200 337.000 45.100 337.100 45.200 337.100 H 51.000 C 51.100 337.100 51.000 337.000 51.000 337.100 V 340.000 C 51.000 340.055 51.045 340.100 51.100 340.100 H 57.100 C 57.155 340.100 57.200 340.055 57.200 340.000 V 337.100 C 57.200 337.000 57.100 337.100 57.200 337.100 H 63.000 C 63.100 337.100 63.000 337.000 63.000 337.100 V 340.000 C 63.000 340.055 63.045 340.100 63.100 340.100 H 69.100 C 69.155 340.100 69.200 340.055 69.200 340.000 V 337.100 C 69.200 337.000 69.100 337.100 69.200 337.100 H 75.000 C 75.100 337.100 75.000 337.000 75.000 337.100 V 340.000 C 75.000 340.055 75.045 340.100 75.100 340.100 H 81.100 C 81.155 340.100 81.200 340.055 81.200 340.000 V 337.100 C 81.200 337.000 81.100 337.100 81.200 337.100 H 87.000 C 87.100 337.100 87.000 337.000 87.000 337.100 V 340.000 C 87.000 340.055 87.045 340.100 87.100 340.100 H 93.100 C 93.155 340.100 93.200 340.055 93.200 340.000 V 337.100 C 93.200 337.000 93.100 337.100 93.200 337.100 H 99.000 C 99.100 337.100 99.000 337.000 99.000 337.100 V 340.000 C 99.000 340.055 99.045 340.100 99.100 340.100 H 105.100 C 105.155 340.100 105.200 340.055 105.200 340.000 V 337.100 C 105.200 337.000 105.100 337.100 105.200 337.100 H 111.000 C 111.100 337.100 111.000 337.000 111.000 337.100 V 340.000 C 111.000 340.055 111.045 340.100 111.100 340.100 H 117.100 C 117.155 340.100 117.200 340.055 117.200 340.000 V 337.100 C 117.200 337.000 117.100 337.100 117.200 337.100 H 123.000 C 123.100 337.100 123.000 337.000 123.000 337.100 V 340.000 C 123.000 340.055 123.045 340.100 123.100 340.100 H 129.100 C 129.155 340.100 129.200 340.055 129.200 340.000 V 337.100 C 129.200 337.000 129.100 337.100 129.200 337.100 H 135.000 C 135.100 337.100 135.000 337.000 135.000 337.100 V 340.000 C 135.000 340.055 135.045 340.100 135.100 340.100 H 141.100 C 141.155 340.100 141.200 340.055 141.200 340.000 V 337.100 C 141.200 337.000 141.100 337.100 141.200 337.100 H 147.000 C 147.100 337.100 147.000 337.000 147.000 337.100 V 340.000 C 147.000 340.055 147.045 340.100 147.100 340.100 H 153.100 C 153.155 340.100 153.200 340.055 153.200 340.000 V 337.100 C 153.200 337.000 153.100 337.100 153.200 337.100 H 159.000 C 159.100 337.100 159.000 337.000 159.000 337.100 V 340.000 C 159.000 340.055 159.045 340.100 159.100 340.100 H 165.100 C 165.155 340.100 165.200 340.055 165.200 340.000 V 337.100 C 165.200 337.000 165.100 337.100 165.200 337.100 H 171.000 C 171.100 337.100 171.000 337.000 171.000 337.100 V 340.000 C 171.000 340.055 171.045 340.100 171.100 340.100 H 177.100 C 177.155 340.100 177.200 340.055 177.200 340.000 V 337.100 C 177.200 337.000 177.100 337.100 177.200 337.100 H 183.000 C 183.100 337.100 183.000 337.000 183.000 337.100 V 340.000 C 183.000 340.055 183.045 340.100 183.100 340.100 H 189.100 C 189.155 340.100 189.200 340.055 189.200 340.000 V 337.100 C 189.200 337.000 189.100 337.100 189.200 337.100 H 195.000 C 195.100 337.100 195.000 337.000 195.000 337.100 V 340.000 C 195.000 340.055 195.045 340.100 195.100 340.100 H 201.100 C 201.155 340.100 201.200 340.055 201.200 340.000 V 337.100 C 201.200 337.000 201.100 337.100 201.200 337.100 H 207.000 C 207.100 337.100 207.000 337.000 207.000 337.100 V 340.000 C 207.000 340.055 207.045 340.100 207.100 340.100 H 213.100 C 213.155 340.100 213.200 340.055 213.200 340.000 V 337.100 C 213.200 337.000 213.100 337.100 213.200 337.100 H 219.000 C 219.100 337.100 219.000 337.000 219.000 337.100 V 340.000 C 219.000 340.055 219.045 340.100 219.100 340.100 H 225.100 C 225.155 340.100 225.200 340.055 225.200 340.000 V 337.100 C 225.200 337.000 225.100 337.100 225.200 337.100 H 231.000 C 231.100 337.100 231.000 337.000 231.000 337.100 V 340.000 C 231.000 340.055 231.045 340.100 231.100 340.100 H 237.100 C 237.155 340.100 237.200 340.055 237.200 340.000 V 337.100 C 237.200 337.000 237.100 337.100 237.200 337.100 H 243.000 C 243.100 337.100 243.000 337.000 243.000 337.100 V 340.000 C 243.000 340.055 243.045 340.100 243.100 340.100 H 249.100 C 249.155 340.100 249.200 340.055 249.200 340.000 V 337.100 C 249.200 337.000 249.100 337.100 249.200 337.100 H 255.000 C 255.100 337.100 255.000 337.000 255.000 337.100 V 340.000 C 255.000 340.055 255.045 340.100 255.100 340.100 H 261.100 C 261.155 340.100 261.200 340.055 261.200 340.000 V 337.100 C 261.200 337.000 261.100 337.100 261.200 337.100 H 267.000 C 267.100 337.100 267.000 337.000 267.000 337.100 V 340.000 C 267.000 340.055 267.045 340.100 267.100 340.100 H 273.100 C 273.155 340.100 273.200 340.055 273.200 340.000 V 337.100 C 273.200 337.000 273.100 337.100 273.200 337.100 H 279.000 C 279.100 337.100 279.000 337.000 279.000 337.100 V 340.000 C 279.000 340.055 279.045 340.100 279.100 340.100 H 285.100 C 285.155 340.100 285.200 340.055 285.200 340.000 V 337.100 C 285.200 337.000 285.100 337.100 285.200 337.100 H 291.000 C 291.100 337.100 291.000 337.000 291.000 337.100 V 340.000 C 291.000 340.055 291.045 340.100 291.100 340.100 H 297.100 C 297.155 340.100 297.200 340.055 297.200 340.000 V 337.100 C 297.200 337.000 297.100 337.100 297.200 337.100 H 303.000 C 303.100 337.100 303.000 337.000 303.000 337.100 V 340.000 C 303.000 340.055 303.045 340.100 303.100 340.100 H 309.100 C 309.155 340.100 309.200 340.055 309.200 340.000 V 337.100 C 309.200 337.000 309.100 337.100 309.200 337.100 H 315.000 C 315.100 337.100 315.000 337.000 315.000 337.100 V 340.000 C 315.000 340.055 315.045 340.100 315.100 340.100 H 321.100 H 331.100 C 332.346 340.100 333.571 339.772 334.650 339.149 C 335.729 338.526 336.626 337.629 337.249 336.550 C 337.872 335.471 338.200 334.246 338.200 333.000 V 197.000 C 338.200 195.754 337.872 194.529 337.249 193.450 C 336.626 192.371 335.729 191.474 334.650 190.851 C 333.571 190.228 332.346 189.900 331.100 189.900 H 321.100 H 315.100 C 315.045 189.900 315.000 189.945 315.000 190.000 V 192.900 C 315.000 193.000 315.100 192.900 315.000 192.900 H 309.200 C 309.100 192.900 309.200 193.000 309.200 192.900 V 190.000 C 309.200 189.945 309.155 189.900 309.100 189.900 H 303.100 C 303.045 189.900 303.000 189.945 303.000 190.000 V 192.900 C 303.000 193.000 303.100 192.900 303.000 192.900 H 297.200 C 297.100 192.900 297.200 193.000 297.200 192.900 V 190.000 C 297.200 189.945 297.155 189.900 297.100 189.900 H 291.100 C 291.045 189.900 291.000 189.945 291.000 190.000 V 192.900 C 291.000 193.000 291.100 192.900 291.000 192.900 H 285.200 C 285.100 192.900 285.200 193.000 285.200 192.900 V 190.000 C 285.200 189.945 285.155 189.900 285.100 189.900 H 279.100 C 279.045 189.900 279.000 189.945 279.000 190.000 V 192.900 C 279.000 193.000 279.100 192.900 279.000 192.900 H 273.200 C 273.100 192.900 273.200 193.000 273.200 192.900 V 190.000 C 273.200 189.945 273.155 189.900 273.100 189.900 H 267.100 C 267.045 189.900 267.000 189.945 267.000 190.000 V 192.900 C 267.000 193.000 267.100 192.900 267.000 192.900 H 261.200 C 261.100 192.900 261.200 193.000 261.200 192.900 V 190.000 C 261.200 189.945 261.155 189.900 261.100 189.900 H 255.100 C 255.045 189.900 255.000 189.945 255.000 190.000 V 192.900 C 255.000 193.000 255.100 192.900 255.000 192.900 H 249.200 C 249.100 192.900 249.200 193.000 249.200 192.900 V 190.000 C 249.200 189.945 249.155 189.900 249.100 189.900 H 243.100 C 243.045 189.900 243.000 189.945 243.000 190.000 V 192.900 C 243.000 193.000 243.100 192.900 243.000 192.900 H 237.200 C 237.100 192.900 237.200 193.000 237.200 192.900 V 190.000 C 237.200 189.945 237.155 189.900 237.100 189.900 H 231.100 C 231.045 189.900 231.000 189.945 231.000 190.000 V 192.900 C 231.000 193.000 231.100 192.900 231.000 192.900 H 225.200 C 225.100 192.900 225.200 193.000 225.200 192.900 V 190.000 C 225.200 189.945 225.155 189.900 225.100 189.900 H 219.100 C 219.045 189.900 219.000 189.945 219.000 190.000 V 192.900 C 219.000 193.000 219.100 192.900 219.000 192.900 H 213.200 C 213.100 192.900 213.200 193.000 213.200 192.900 V 190.000 C 213.200 189.945 213.155 189.900 213.100 189.900 H 207.100 C 207.045 189.900 207.000 189.945 207.000 190.000 V 192.900 C 207.000 193.000 207.100 192.900 207.000 192.900 H 201.200 C 201.100 192.900 201.200 193.000 201.200 192.900 V 190.000 C 201.200 189.945 201.155 189.900 201.100 189.900 H 195.100 C 195.045 189.900 195.000 189.945 195.000 190.000 V 192.900 C 195.000 193.000 195.100 192.900 195.000 192.900 H 189.200 C 189.100 192.900 189.200 193.000 189.200 192.900 V 190.000 C 189.200 189.945 189.155 189.900 189.100 189.900 H 183.100 C 183.045 189.900 183.000 189.945 183.000 190.000 V 192.900 C 183.000 193.000 183.100 192.900 183.000 192.900 H 177.200 C 177.100 192.900 177.200 193.000 177.200 192.900 V 190.000 C 177.200 189.945 177.155 189.900 177.100 189.900 H 171.100 C 171.045 189.900 171.000 189.945 171.000 190.000 V 192.900 C 171.000 193.000 171.100 192.900 171.000 192.900 H 165.200 C 165.100 192.900 165.200 193.000 165.200 192.900 V 190.000 C 165.200 189.945 165.155 189.900 165.100 189.900 H 159.100 C 159.045 189.900 159.000 189.945 159.000 190.000 V 192.900 C 159.000 193.000 159.100 192.900 159.000 192.900 H 153.200 C 153.100 192.900 153.200 193.000 153.200 192.900 V 190.000 C 153.200 189.945 153.155 189.900 153.100 189.900 H 147.100 C 147.045 189.900 147.000 189.945 147.000 190.000 V 192.900 C 147.000 193.000 147.100 192.900 147.000 192.900 H 141.200 C 141.100 192.900 141.200 193.000 141.200 192.900 V 190.000 C 141.200 189.945 141.155 189.900 141.100 189.900 H 135.100 C 135.045 189.900 135.000 189.945 135.000 190.000 V 192.900 C 135.000 193.000 135.100 192.900 135.000 192.900 H 129.200 C 129.100 192.900 129.200 193.000 129.200 192.900 V 190.000 C 129.200 189.945 129.155 189.900 129.100 189.900 H 123.100 C 123.045 189.900 123.000 189.945 123.000 190.000 V 192.900 C 123.000 193.000 123.100 192.900 123.000 192.900 H 117.200 C 117.100 192.900 117.200 193.000 117.200 192.900 V 190.000 C 117.200 189.945 117.155 189.900 117.100 189.900 H 111.100 C 111.045 189.900 111.000 189.945 111.000 190.000 V 192.900 C 111.000 193.000 111.100 192.900 111.000 192.900 H 105.200 C 105.100 192.900 105.200 193.000 105.200 192.900 V 190.000 C 105.200 189.945 105.155 189.900 105.100 189.900 H 99.100 C 99.045 189.900 99.000 189.945 99.000 190.000 V 192.900 C 99.000 193.000 99.100 192.900 99.000 192.900 H 93.200 C 93.100 192.900 93.200 193.000 93.200 192.900 V 190.000 C 93.200 189.945 93.155 189.900 93.100 189.900 H 87.100 C 87.045 189.900 87.000 189.945 87.000 190.000 V 192.900 C 87.000 193.000 87.100 192.900 87.000 192.900 H 81.200 C 81.100 192.900 81.200 193.000 81.200 192.900 V 190.000 C 81.200 189.945 81.155 189.900 81.100 189.900 H 75.100 C 75.045 189.900 75.000 189.945 75.000 190.000 V 192.900 C 75.000 193.000 75.100 192.900 75.000 192.900 H 69.200 C 69.100 192.900 69.200 193.000 69.200 192.900 V 190.000 C 69.200 189.945 69.155 189.900 69.100 189.900 H 63.100 C 63.045 189.900 63.000 189.945 63.000 190.000 V 192.900 C 63.000 193.000 63.100 192.900 63.000 192.900 H 57.200 C 57.100 192.900 57.200 193.000 57.200 192.900 V 190.000 C 57.200 189.945 57.155 189.900 57.100 189.900 H 51.100 C 51.045 189.900 51.000 189.945 51.000 190.000 V 192.900 C 51.000 193.000 51.100 192.900 51.000 192.900 H 45.200 C 45.100 192.900 45.200 193.000 45.200 192.900 V 190.000 C 45.200 189.945 45.155 189.900 45.100 189.900 H 39.100 C 39.045 189.900 39.000 189.945 39.000 190.000 V 192.900 C 39.000 193.000 39.100 192.900 39.000 192.900 H 33.200 C 33.100 192.900 33.200 193.000 33.200 192.900 V 190.000 C 33.200 189.945 33.155 189.900 33.100 189.900 H 27.100 H 17.100 C 15.854 189.900 14.629 190.228 13.550 190.851 C 12.471 191.474 11.574 192.371 10.951 193.450 C 10.328 194.529 10.000 195.754 10.000 197.000 V 333.000 C 10.000 334.246 10.328 335.471 10.951 336.550 C 11.574 337.629 12.471 338.526 13.550 339.149 C 14.629 339.772 15.854 340.100 17.100 340.100" stroke="rgb(0,0,0)" stroke-width="0.20" />
  <path d="M 331.100 331.600 C 331.368 331.600 331.631 331.677 331.857 331.822 C 332.083 331.967 332.262 332.174 332.373 332.418 C 332.485 332.663 332.524 332.934 332.486 333.199 C 332.448 333.465 332.334 333.714 332.158 333.917 C 331.982 334.120 331.752 334.268 331.494 334.343 C 331.237 334.419 330.963 334.419 330.706 334.343 C 330.448 334.268 330.218 334.120 330.042 333.917 C 329.866 333.714 329.752 333.465 329.714 333.199 C 329.676 332.934 329.715 332.663 329.827 332.418 C 329.938 332.174 330.117 331.967 330.343 331.822 C 330.569 331.677 330.832 331.600 331.100 331.600 Z" stroke="rgb(0,0,255)" stroke-width="0.20" />
  <path d="M 324.100 325.000 V 327.900 C 324.100 328.000 324.200 327.900 324.100 327.900 H 321.300 C 321.200 327.900 321.300 328.000 321.300 327.900 V 322.100 C 321.300 322.000 321.200 322.100 321.300 322.100 H 324.100 C 324.200 322.100 324.100 322.000 324.100 322.100 V 325.000 Z" stroke="rgb(0,0,255)" stroke-width="0.20" />
  <path d="M 324.100 313.000 V 315.900 C 324.100 316.000 324.200 315.900 324.100 315.900 H 321.300 C 321.200 315.900 321.300 316.000 321.300 315.900 V 310.100 C 321.300 310.000 321.200 310.100 321.300 310.100 H 324.100 C 324.200 310.100 324.100 310.000 324.100 310.100 V 313.000 Z" stroke="rgb(0,0,255)" stroke-width="0.20" />
  <path d="M 324.100 301.000 V 303.900 C 324.100 304.000 324.200 303.900 324.100 303.900 H 321.300 C 321.200 303.900 321.300 304.000 321.300 303.900 V 298.100 C 321.300 298.000 321.200 298.100 321.300 298.100 H 324.100 C 324.200 298.100 324.100 298.000 324.100 298.100 V 301.000 Z" stroke="rgb(0,0,255)" stroke-width="0.20" />
  <path d="M 324.100 289.000 V 291.900 C 324.100 292.000 324.200 291.900 324.100 291.900 H 321.300 C 321.200 291.900 321.300 292.000 321.300 291.900 V 286.100 C 321.300 286.000 321.200 286.100 321.300 286.100 H 324.100 C 324.200 286.100 324.100 286.000 324.100 286.100 V 289.000 Z" stroke="rgb(0,0,255)" stroke-width="0.20" />
  <path d="M 324.100 277.000 V 279.900 C 324.100 280.000 324.200 279.900 324.100 279.900 H 321.300 C 321.200 279.900 321.300 280.000 321.300 279.900 V 274.100 C 321.300 274.000 321.200 274.100 321.300 274.100 H 324.100 C 324.200 274.100 324.100 274.000 324.100 274.100 V 277.000 Z" stroke="rgb(0,0,255)" stroke-width="0.20" />
  <path d="M 324.100 265.000 V 267.900 C 324.100 268.000 324.200 267.900 324.100 267.900 H 321.300 C 321.200 267.900 321.300 268.000 321.300 267.900 V 262.100 C 321.300 262.000 321.200 262.100 321.300 262.100 H 324.100 C 324.200 262.100 324.100 262.000 324.100 262.100 V 265.000 Z" stroke="rgb(0,0,255)" stroke-width="0.20" />
  <path d="M 324.100 253.000 V 255.900 C 324.100 256.000 324.200 255.900 324.100 255.900 H 321.300 C 321.200 255.900 321.300 256.000 321.300 255.900 V 250.100 C 321.300 250.000 321.200 250.100 321.300 250.100 H 324.100 C 324.200 250.100 324.100 250.000 324.100 250.100 V 253.000 Z" stroke="rgb(0,0,255)" stroke-width="0.20" />
  <path d="M 324.100 241.000 V 243.900 C 324.100 244.000 324.200 243.900 324.100 243.900 H 321.300 C 321.200 243.900 321.300 244.000 321.300 243.900 V 238.100 C 321.300 238.000 321.200 238.100 321.300 238.100 H 324.100 C 324.200 238.100 324.100 238.000 324.100 238.100 V 241.000 Z" stroke="rgb(0,0,255)" stroke-width="0.20" />
  <path d="M 324.100 229.000 V 231.900 C 324.100 232.000 324.200 231.900 324.100 231.900 H 321.300 C 321.200 231.900 321.300 232.000 321.300 231.900 V 226.100 C 321.300 226.000 321.200 226.100 321.300 226.100 H 324.100 C 324.200 226.100 324.100 226.000 324.100 226.100 V 229.000 Z" stroke="rgb(0,0,255)" stroke-width="0.20" />
  <path d="M 324.100 217.000 V 219.900 C 324.100 220.000 324.200 219.900 324.100 219.900 H 321.300 C 321.200 219.900 321.300 220.000 321.300 219.900 V 214.100 C 321.300 214.000 321.200 214.100 321.300 214.100 H 324.100 C 324.200 214.100 324.100 214.000 324.100 214.100 V 217.000 Z" stroke="rgb(0,0,255)" stroke-width="0.20" />
  <path d="M 324.100 205.000 V 207.900 C 324.100 208.000 324.200 207.900 324.100 207.900 H 321.300 C 321.200 207.900 321.300 208.000 321.300 207.900 V 202.100 C 321.300 202.000 321.200 202.100 321.300 202.100 H 324.100 C 324.200 202.100 324.100 202.000 324.100 202.100 V 205.000 Z" stroke="rgb(0,0,255)" stroke-width="0.20" />
  <path d="M 329.700 197.000 C 329.700 196.732 329.777 196.469 329.922 196.243 C 330.067 196.017 330.274 195.838 330.518 195.727 C 330.763 195.615 331.034 195.576 331.299 195.614 C 331.565 195.652 331.814 195.766 332.017 195.942 C 332.220 196.118 332.368 196.348 332.443 196.606 C 332.519 196.863 332.519 197.137 332.443 197.394 C 332.368 197.652 332.220 197.882 332.017 198.058 C 331.814 198.234 331.565 198.348 331.299 198.386 C 331.034 198.424 330.763 198.385 330.518 198.273 C 330.274 198.162 330.067 197.983 329.922 197.757 C 329.777 197.531 329.700 197.268 329.700 197.000 Z" stroke="rgb(0,0,255)" stroke-width="0.20" />
  <path d="M 17.100 198.400 C 16.832 198.400 16.569 198.323 16.343 198.178 C 16.117 198.033 15.938 197.826 15.827 197.582 C 15.715 197.337 15.676 197.066 15.714 196.801 C 15.752 196.535 15.866 196.286 16.042 196.083 C 16.218 195.880 16.448 195.732 16.706 195.657 C 16.963 195.581 17.237 195.581 17.494 195.657 C 17.752 195.732 17.982 195.880 18.158 196.083 C 18.334 196.286 18.448 196.535 18.486 196.801 C 18.524 197.066 18.485 197.337 18.373 197.582 C 18.262 197.826 18.083 198.033 17.857 198.178 C 17.631 198.323 17.368 198.400 17.100 198.400 Z" stroke="rgb(0,0,255)" stroke-width="0.20" />
  <path d="M 24.100 205.000 V 202.100 C 24.100 202.000 24.000 202.100 24.100 202.100 H 26.900 C 27.000 202.100 26.900 202.000 26.900 202.100 V 207.900 C 26.900 208.000 27.000 207.900 26.900 207.900 H 24.100 C 24.000 207.900 24.100 208.000 24.100 207.900 V 205.000 Z" stroke="rgb(0,0,255)" stroke-width="0.20" />
  <path d="M 24.100 217.000 V 214.100 C 24.100 214.000 24.000 214.100 24.100 214.100 H 26.900 C 27.000 214.100 26.900 214.000 26.900 214.100 V 219.900 C 26.900 220.000 27.000 219.900 26.900 219.900 H 24.100 C 24.000 219.900 24.100 220.000 24.100 219.900 V 217.000 Z" stroke="rgb(0,0,255)" stroke-width="0.20" />
  <path d="M 24.100 229.000 V 226.100 C 24.100 226.000 24.000 226.100 24.100 226.100 H 26.900 C 27.000 226.100 26.900 226.000 26.900 226.100 V 231.900 C 26.900 232.000 27.000 231.900 26.900 231.900 H 24.100 C 24.000 231.900 24.100 232.000 24.100 231.900 V 229.000 Z" stroke="rgb(0,0,255)" stroke-width="0.20" />
  <path d="M 24.100 241.000 V 238.100 C 24.100 238.000 24.000 238.100 24.100 238.100 H 26.900 C 27.000 238.100 26.900 238.000 26.900 238.100 V 243.900 C 26.900 244.000 27.000 243.900 26.900 243.900 H 24.100 C 24.000 243.900 24.100 244.000 24.100 243.900 V 241.000 Z" stroke="rgb(0,0,255)" stroke-width="0.20" />
  <path d="M 24.100 253.000 V 250.100 C 24.100 250.000 24.000 250.100 24.100 250.100 H 26.900 C 27.000 250.100 26.900 250.000 26.900 250.100 V 255.900 C 26.900 256.000 27.000 255.900 26.900 255.900 H 24.100 C 24.000 255.900 24.100 256.000 24.100 255.900 V 253.000 Z" stroke="rgb(0,0,255)" stroke-width="0.20" />
  <path d="M 24.100 265.000 V 262.100 C 24.100 262.000 24.000 262.100 24.100 262.100 H 26.900 C 27.000 262.100 26.900 262.000 26.900 262.100 V 267.900 C 26.900 268.000 27.000 267.900 26.900 267.900 H 24.100 C 24.000 267.900 24.100 268.000 24.100 267.900 V 265.000 Z" stroke="rgb(0,0,255)" stroke-width="0.20" />
  <path d="M 24.100 277.000 V 274.100 C 24.100 274.000 24.000 274.100 24.100 274.100 H 26.900 C 27.000 274.100 26.900 274.000 26.900 274.100 V 279.900 C 26.900 280.000 27.000 279.900 26.900 279.900 H 24.100 C 24.000 279.900 24.100 280.000 24.100 279.900 V 277.000 Z" stroke="rgb(0,0,255)" stroke-width="0.20" />
  <path d="M 24.100 289.000 V 286.100 C 24.100 286.000 24.000 286.100 24.100 286.100 H 26.900 C 27.000 286.100 26.900 286.000 26.900 286.100 V 291.900 C 26.900 292.000 27.000 291.900 26.900 291.900 H 24.100 C 24.000 291.900 24.100 292.000 24.100 291.900 V 289.000 Z" stroke="rgb(0,0,255)" stroke-width="0.20" />
  <path d="M 24.100 301.000 V 298.100 C 24.100 298.000 24.000 298.100 24.100 298.100 H 26.900 C 27.000 298.100 26.900 298.000 26.900 298.100 V 303.900 C 26.900 304.000 27.000 303.900 26.900 303.900 H 24.100 C 24.000 303.900 24.100 304.000 24.100 303.900 V 301.000 Z" stroke="rgb(0,0,255)" stroke-width="0.20" />
  <path d="M 24.100 313.000 V 310.100 C 24.100 310.000 24.000 310.100 24.100 310.100 H 26.900 C 27.000 310.100 26.900 310.000 26.900 310.100 V 315.900 C 26.900 316.000 27.000 315.900 26.900 315.900 H 24.100 C 24.000 315.900 24.100 316.000 24.100 315.900 V 313.000 Z" stroke="rgb(0,0,255)" stroke-width="0.20" />
  <path d="M 24.100 325.000 V 322.100 C 24.100 322.000 24.000 322.100 24.100 322.100 H 26.900 C 27.000 322.100 26.900 322.000 26.900 322.100 V 327.900 C 26.900 328.000 27.000 327.900 26.900 327.900 H 24.100 C 24.000 327.900 24.100 328.000 24.100 327.900 V 325.000 Z" stroke="rgb(0,0,255)" stroke-width="0.20" />
</g>
<g id="p-6" style="fill:none;stroke-linecap:round;stroke-linejoin:round;">
  <path d="M 19.833 179.967 C 19.833 180.235 19.756 180.498 19.611 180.724 C 19.466 180.949 19.259 181.129 19.015 181.240 C 18.771 181.352 18.500 181.391 18.234 181.352 C 17.968 181.314 17.719 181.200 17.517 181.025 C 17.314 180.849 17.166 180.619 17.090 180.361 C 17.014 180.104 17.014 179.830 17.090 179.572 C 17.166 179.315 17.314 179.084 17.517 178.909 C 17.719 178.733 17.968 178.619 18.234 178.581 C 18.500 178.543 18.771 178.582 19.015 178.693 C 19.259 178.805 19.466 178.984 19.611 179.210 C 19.756 179.436 19.833 179.698 19.833 179.967 Z" stroke="rgb(0,0,255)" stroke-width="0.20" />
  <text alignment-baseline="hanging" font-size="4px" style="font-family: sans-serif ; font-weight: normal; font-style: normal; fill: rgb(255,0,0)" text-anchor="middle" transform="matrix( 1.000 0.000 0.000 1.000 157.100 114.400 )" /><path d="M 10.100 188.400 H 304.100 C 304.155 188.400 304.200 188.355 304.200 188.300 V 44.300 C 304.200 44.245 304.155 44.200 304.100 44.200 H 10.100 C 10.045 44.200 10.000 44.245 10.000 44.300 V 188.300 C 10.000 188.355 10.045 188.400 10.100 188.400" stroke="rgb(0,0,0)" stroke-width="0.20" />
  <path d="M 295.767 178.567 C 296.035 178.567 296.298 178.644 296.524 178.789 C 296.749 178.934 296.929 179.141 297.040 179.385 C 297.152 179.629 297.191 179.900 297.152 180.166 C 297.114 180.432 297.000 180.681 296.825 180.883 C 296.649 181.086 296.419 181.234 296.161 181.310 C 295.904 181.386 295.630 181.386 295.372 181.310 C 295.115 181.234 294.884 181.086 294.709 180.883 C 294.533 180.681 294.419 180.432 294.381 180.166 C 294.343 179.900 294.382 179.629 294.493 179.385 C 294.605 179.141 294.784 178.934 295.010 178.789 C 295.236 178.644 295.498 178.567 295.767 178.567 Z" stroke="rgb(0,0,255)" stroke-width="0.20" />
  <path d="M 294.367 52.633 C 294.367 52.365 294.444 52.102 294.589 51.876 C 294.734 51.651 294.941 51.471 295.185 51.360 C 295.429 51.248 295.700 51.209 295.966 51.248 C 296.232 51.286 296.481 51.400 296.683 51.575 C 296.886 51.751 297.034 51.981 297.110 52.239 C 297.186 52.496 297.186 52.770 297.110 53.028 C 297.034 53.285 296.886 53.516 296.683 53.691 C 296.481 53.867 296.232 53.981 295.966 54.019 C 295.700 54.057 295.429 54.018 295.185 53.907 C 294.941 53.795 294.734 53.616 294.589 53.390 C 294.444 53.164 294.367 52.902 294.367 52.633 Z" stroke="rgb(0,0,255)" stroke-width="0.20" />
  <path d="M 18.433 54.033 C 18.165 54.033 17.902 53.956 17.676 53.811 C 17.451 53.666 17.271 53.459 17.160 53.215 C 17.048 52.971 17.009 52.700 17.048 52.434 C 17.086 52.168 17.200 51.919 17.375 51.717 C 17.551 51.514 17.781 51.366 18.039 51.290 C 18.296 51.214 18.570 51.214 18.828 51.290 C 19.085 51.366 19.316 51.514 19.491 51.717 C 19.667 51.919 19.781 52.168 19.819 52.434 C 19.857 52.700 19.818 52.971 19.707 53.215 C 19.595 53.459 19.416 53.666 19.190 53.811 C 18.964 53.956 18.702 54.033 18.433 54.033 Z" stroke="rgb(0,0,255)" stroke-width="0.20" />
</g>
<g id="p-7" style="fill:none;stroke-linecap:round;stroke-linejoin:round;">
  <path d="M 16.500 39.700 H 25.900 C 26.000 39.700 25.900 39.600 25.900 39.700 V 42.600 C 25.900 42.655 25.945 42.700 26.000 42.700 H 32.000 C 32.055 42.700 32.100 42.655 32.100 42.600 V 39.700 C 32.100 39.600 32.000 39.700 32.100 39.700 H 41.500 C 41.555 39.700 41.600 39.655 41.600 39.600 V 30.200 C 41.600 30.100 41.500 30.200 41.600 30.200 H 44.500 C 44.555 30.200 44.600 30.155 44.600 30.100 V 24.100 C 44.600 24.045 44.555 24.000 44.500 24.000 H 41.600 C 41.500 24.000 41.600 24.100 41.600 24.000 V 14.600 C 41.600 14.545 41.555 14.500 41.500 14.500 C 41.473 14.500 41.448 14.511 41.429 14.529 L 16.429 39.529 C 16.411 39.548 16.400 39.573 16.400 39.600 C 16.400 39.655 16.445 39.700 16.500 39.700 Z" stroke="rgb(0,0,0)" stroke-width="0.20" />
  <path d="M 33.167 30.367 C 33.339 30.367 33.508 30.416 33.653 30.510 C 33.798 30.603 33.914 30.736 33.985 30.893 C 34.057 31.050 34.082 31.224 34.058 31.395 C 34.033 31.566 33.960 31.726 33.847 31.856 C 33.734 31.986 33.586 32.082 33.420 32.130 C 33.255 32.179 33.079 32.179 32.913 32.130 C 32.748 32.082 32.599 31.986 32.486 31.856 C 32.374 31.726 32.300 31.566 32.276 31.395 C 32.251 31.224 32.276 31.050 32.348 30.893 C 32.420 30.736 32.535 30.603 32.680 30.510 C 32.825 30.416 32.994 30.367 33.167 30.367 Z" stroke="rgb(0,0,255)" stroke-width="0.20" />
  <path d="M 39.800 13.000 H 30.400 C 30.300 13.000 30.400 13.100 30.400 13.000 V 10.100 C 30.400 10.045 30.355 10.000 30.300 10.000 H 24.300 C 24.245 10.000 24.200 10.045 24.200 10.100 V 13.000 C 24.200 13.100 24.300 13.000 24.200 13.000 H 14.800 C 14.745 13.000 14.700 13.045 14.700 13.100 V 22.500 C 14.700 22.600 14.800 22.500 14.700 22.500 H 11.800 C 11.745 22.500 11.700 22.545 11.700 22.600 V 28.600 C 11.700 28.655 11.745 28.700 11.800 28.700 H 14.700 C 14.800 28.700 14.700 28.600 14.700 28.700 V 38.100 C 14.700 38.155 14.745 38.200 14.800 38.200 C 14.827 38.200 14.852 38.189 14.871 38.171 L 39.871 13.171 C 39.889 13.152 39.900 13.127 39.900 13.100 C 39.900 13.045 39.855 13.000 39.800 13.000 Z" stroke="rgb(0,0,0)" stroke-width="0.20" />
  <path d="M 23.133 22.333 C 22.961 22.333 22.792 22.284 22.647 22.190 C 22.502 22.097 22.386 21.964 22.315 21.807 C 22.243 21.650 22.218 21.476 22.242 21.305 C 22.267 21.134 22.340 20.974 22.453 20.844 C 22.566 20.714 22.714 20.618 22.880 20.570 C 23.045 20.521 23.221 20.521 23.387 20.570 C 23.552 20.618 23.701 20.714 23.814 20.844 C 23.926 20.974 24.000 21.134 24.024 21.305 C 24.049 21.476 24.024 21.650 23.952 21.807 C 23.880 21.964 23.765 22.097 23.620 22.190 C 23.475 22.284 23.306 22.333 23.133 22.333 Z" stroke="rgb(0,0,255)" stroke-width="0.20" />
  <path d="M 50.900 39.700 H 60.300 C 60.400 39.700 60.300 39.600 60.300 39.700 V 42.600 C 60.300 42.655 60.345 42.700 60.400 42.700 H 66.400 C 66.455 42.700 66.500 42.655 66.500 42.600 V 39.700 C 66.500 39.600 66.400 39.700 66.500 39.700 H 75.900 C 75.955 39.700 76.000 39.655 76.000 39.600 V 30.200 C 76.000 30.100 75.900 30.200 76.000 30.200 H 78.900 C 78.955 30.200 79.000 30.155 79.000 30.100 V 24.100 C 79.000 24.045 78.955 24.000 78.900 24.000 H 76.000 C 75.900 24.000 76.000 24.100 76.000 24.000 V 14.600 C 76.000 14.545 75.955 14.500 75.900 14.500 C 75.873 14.500 75.848 14.511 75.829 14.529 L 50.829 39.529 C 50.811 39.548 50.800 39.573 50.800 39.600 C 50.800 39.655 50.845 39.700 50.900 39.700 Z" stroke="rgb(0,0,0)" stroke-width="0.20" />
  <path d="M 67.567 30.367 C 67.739 30.367 67.908 30.416 68.053 30.510 C 68.198 30.603 68.314 30.736 68.385 30.893 C 68.457 31.050 68.482 31.224 68.458 31.395 C 68.433 31.566 68.360 31.726 68.247 31.856 C 68.134 31.986 67.986 32.082 67.820 32.130 C 67.655 32.179 67.479 32.179 67.313 32.130 C 67.148 32.082 66.999 31.986 66.886 31.856 C 66.774 31.726 66.700 31.566 66.676 31.395 C 66.651 31.224 66.676 31.050 66.748 30.893 C 66.820 30.736 66.935 30.603 67.080 30.510 C 67.225 30.416 67.394 30.367 67.567 30.367 Z" stroke="rgb(0,0,255)" stroke-width="0.20" />
  <path d="M 74.200 13.000 H 64.800 C 64.700 13.000 64.800 13.100 64.800 13.000 V 10.100 C 64.800 10.045 64.755 10.000 64.700 10.000 H 58.700 C 58.645 10.000 58.600 10.045 58.600 10.100 V 13.000 C 58.600 13.100 58.700 13.000 58.600 13.000 H 49.200 C 49.145 13.000 49.100 13.045 49.100 13.100 V 22.500 C 49.100 22.600 49.200 22.500 49.100 22.500 H 46.200 C 46.145 22.500 46.100 22.545 46.100 22.600 V 28.600 C 46.100 28.655 46.145 28.700 46.200 28.700 H 49.100 C 49.200 28.700 49.100 28.600 49.100 28.700 V 38.100 C 49.100 38.155 49.145 38.200 49.200 38.200 C 49.227 38.200 49.252 38.189 49.271 38.171 L 74.271 13.171 C 74.289 13.152 74.300 13.127 74.300 13.100 C 74.300 13.045 74.255 13.000 74.200 13.000 Z" stroke="rgb(0,0,0)" stroke-width="0.20" />
  <path d="M 57.533 22.333 C 57.361 22.333 57.192 22.284 57.047 22.190 C 56.902 22.097 56.786 21.964 56.715 21.807 C 56.643 21.650 56.618 21.476 56.642 21.305 C 56.667 21.134 56.740 20.974 56.853 20.844 C 56.966 20.714 57.114 20.618 57.280 20.570 C 57.445 20.521 57.621 20.521 57.787 20.570 C 57.952 20.618 58.101 20.714 58.214 20.844 C 58.326 20.974 58.400 21.134 58.424 21.305 C 58.449 21.476 58.424 21.650 58.352 21.807 C 58.280 21.964 58.165 22.097 58.020 22.190 C 57.875 22.284 57.706 22.333 57.533 22.333 Z" stroke="rgb(0,0,255)" stroke-width="0.20" />
  <text alignment-baseline="hanging" font-size="4px" style="font-family: sans-serif ; font-weight: normal; font-style: normal; fill: rgb(255,0,0)" text-anchor="middle" transform="matrix( 1.000 0.000 0.000 1.000 44.500 24.350 )" />
</g>
</svg>